<?xml version="1.0" encoding="UTF-8" standalone="no"?>
<svg
   width="1024"
   height="414"
   version="1.1"
   id="svg11"
   sodipodi:docname="logo.svg"
   inkscape:version="1.3.2 (091e20ef0f, 2023-11-25, custom)"
   xmlns:inkscape="http://www.inkscape.org/namespaces/inkscape"
   xmlns:sodipodi="http://sodipodi.sourceforge.net/DTD/sodipodi-0.dtd"
   xmlns="http://www.w3.org/2000/svg"
   xmlns:svg="http://www.w3.org/2000/svg">
  <defs
     id="defs11">
    <rect
       x="441.77054"
       y="124.23825"
       width="543.48761"
       height="210.26942"
       id="rect1" />
    <rect
       x="441.77054"
       y="124.23825"
       width="543.48761"
       height="210.26942"
       id="rect12" />
  </defs>
  <sodipodi:namedview
     id="namedview11"
     pagecolor="#ffffff"
     bordercolor="#666666"
     borderopacity="1.0"
     inkscape:showpageshadow="2"
     inkscape:pageopacity="0.0"
     inkscape:pagecheckerboard="0"
     inkscape:deskcolor="#d1d1d1"
     showgrid="false"
     inkscape:zoom="0.95351074"
     inkscape:cx="629.25353"
     inkscape:cy="260.61584"
     inkscape:window-width="1366"
     inkscape:window-height="741"
     inkscape:window-x="0"
     inkscape:window-y="27"
     inkscape:window-maximized="1"
     inkscape:current-layer="svg11" />
  <path
     stroke-linejoin="round"
     d="M487.93 322.997c-.94 1.926-2.664 3.691-5.188 5.289-2.52 1.607-5.722 2.406-9.611 2.406-5.132 0-9.259-1.617-12.394-4.887-3.122-3.243-4.686-7.92-4.686-14.022V296.57c0-5.97 1.473-10.548 4.431-13.743 2.95-3.17 6.903-4.78 11.84-4.78 4.824 0 8.564 1.27 11.212 3.781 2.639 2.519 4.025 6.038 4.146 10.532l-.066.2h-3.94c-.14-3.443-1.14-6.101-3.022-7.979-1.871-1.861-4.655-2.803-8.33-2.803-3.72 0-6.668 1.259-8.823 3.785-2.15 2.518-3.224 6.17-3.224 10.968v15.301q.001 7.462 3.476 11.382c2.316 2.592 5.438 3.892 9.38 3.892 2.876 0 5.19-.51 6.92-1.554 1.738-1.028 2.942-2.285 3.624-3.775V308.45h-10.618v-3.704h14.873zm19.557 3.902c2.336 0 4.416-.661 6.232-2.01 1.82-1.353 3.096-3.063 3.852-5.146v-8.224h-6.756q-4.31 0-6.896 2.442c-1.726 1.617-2.581 3.637-2.581 6.037 0 2.03.534 3.696 1.616 4.981 1.08 1.289 2.59 1.92 4.533 1.92m10.715 3.068a99 99 0 0 1-.48-3.225 22 22 0 0 1-.15-2.562 14.9 14.9 0 0 1-4.483 4.675c-1.836 1.236-3.878 1.848-6.128 1.848-3.147 0-5.567-.975-7.28-2.927-1.702-1.96-2.563-4.6-2.563-7.936 0-3.523 1.237-6.35 3.72-8.448 2.48-2.098 5.85-3.147 10.09-3.147h6.643v-4.672c0-2.686-.686-4.802-2.032-6.331-1.375-1.51-3.264-2.275-5.701-2.275-2.268 0-4.139.722-5.608 2.182-1.463 1.45-2.19 3.224-2.19 5.337l-3.944-.035-.07-.206c-.11-2.866.973-5.4 3.261-7.646 2.279-2.24 5.203-3.352 8.761-3.352 3.517 0 6.347 1.069 8.509 3.2q3.224 3.227 3.226 9.21v18.645c0 1.358.064 2.677.183 3.936a25 25 0 0 0 .627 3.729zm16.905-38.108.36 5.9c1-2.112 2.339-3.739 3.998-4.896q2.498-1.711 5.874-1.711c2.296 0 4.232.668 5.794 2.02 1.562 1.347 2.714 3.387 3.446 6.127.938-2.529 2.264-4.528 3.986-5.975 1.722-1.45 3.812-2.172 6.23-2.172 3.335 0 5.923 1.35 7.755 4.05 1.841 2.705 2.759 6.856 2.759 12.464v22.207h-4.246v-22.28c0-4.663-.645-7.946-1.9-9.834-1.261-1.89-3.071-2.842-5.41-2.842-2.462 0-4.384 1.04-5.767 3.152-1.375 2.112-2.223 4.754-2.531 7.945v23.86h-4.224v-22.258c0-4.554-.639-7.812-1.945-9.759-1.299-1.946-3.107-2.912-5.427-2.912-2.218 0-4.013.677-5.358 2.02-1.353 1.349-2.315 3.195-2.899 5.538v27.369h-4.22v-38.014zm61.457 3.021q-3.966 0-6.517 3.613c-1.705 2.415-2.585 5.392-2.656 8.938h17.537v-1.626c0-3.137-.736-5.75-2.21-7.822-1.482-2.075-3.53-3.103-6.154-3.103m.598 35.735c-4.099 0-7.451-1.543-10.055-4.621q-3.895-4.61-3.896-11.793v-6.313c0-4.798 1.303-8.798 3.912-11.979 2.616-3.167 5.758-4.75 9.441-4.75 3.983 0 7.068 1.413 9.27 4.246q3.313 4.257 3.312 11.434v4.171H587.39v3.162c0 3.68.882 6.744 2.635 9.19 1.757 2.45 4.144 3.666 7.136 3.666 2.077 0 3.888-.367 5.396-1.089a11.1 11.1 0 0 0 3.877-3.132l1.728 2.99c-1.148 1.456-2.634 2.633-4.45 3.505-1.811.868-4 1.312-6.551 1.312m46.411-35.734q-3.976 0-6.528 3.613-2.54 3.62-2.652 8.938h17.54v-1.626c0-3.137-.733-5.75-2.216-7.822-1.475-2.075-3.52-3.103-6.144-3.103m.593 35.735c-4.1 0-7.446-1.543-10.045-4.621q-3.91-4.61-3.91-11.793v-6.313c0-4.798 1.309-8.798 3.913-11.979 2.623-3.167 5.766-4.75 9.45-4.75 3.975 0 7.072 1.413 9.27 4.246 2.2 2.837 3.304 6.65 3.304 11.434v4.171h-21.755v3.162q0 5.52 2.647 9.19c1.747 2.45 4.124 3.666 7.125 3.666 2.087 0 3.888-.367 5.392-1.089a11.2 11.2 0 0 0 3.894-3.132l1.717 2.99c-1.15 1.456-2.633 2.633-4.451 3.505-1.81.868-3.997 1.312-6.55 1.312m23.189-38.755.345 6.284c1.014-2.23 2.353-3.962 4.034-5.166 1.667-1.21 3.63-1.824 5.887-1.824 3.396 0 5.998 1.256 7.804 3.78 1.826 2.518 2.73 6.434 2.73 11.749v23.191h-4.249V306.72c0-4.343-.636-7.377-1.9-9.137-1.258-1.76-3.107-2.636-5.513-2.636-2.158 0-3.968.701-5.419 2.126-1.457 1.412-2.543 3.294-3.267 5.666v27.134h-4.219V291.86zm33.27 22.395c0 3.858.73 6.926 2.213 9.208 1.465 2.304 3.695 3.443 6.671 3.443 2.04 0 3.757-.544 5.167-1.657 1.405-1.113 2.514-2.662 3.336-4.627V301.79c-.79-2.025-1.874-3.66-3.244-4.92-1.368-1.24-3.102-1.863-5.186-1.863-2.97 0-5.216 1.294-6.708 3.891-1.502 2.603-2.25 5.995-2.25 10.161zm-4.262-5.195c0-5.386 1.088-9.714 3.274-12.975 2.169-3.245 5.187-4.871 9.03-4.871 2.134 0 4.007.52 5.607 1.564 1.603 1.024 2.928 2.523 3.992 4.43l.412-5.287h3.581v38.048c0 4.871-1.13 8.646-3.4 11.317-2.271 2.66-5.499 4.009-9.666 4.009-1.5 0-3.11-.235-4.832-.691-1.724-.456-3.252-1.054-4.59-1.805l1.168-3.704a14.1 14.1 0 0 0 3.831 1.716 15.2 15.2 0 0 0 4.352.616q4.536-.001 6.71-2.905c1.452-1.961 2.18-4.798 2.18-8.553v-4.597c-1.079 1.71-2.402 3.024-3.97 3.93-1.563.912-3.39 1.368-5.448 1.368-3.818 0-6.814-1.496-8.976-4.486-2.167-2.983-3.255-6.965-3.255-11.93zm40.2 20.916h-4.266V291.86h4.266zm0-48.968h-4.266v-6.005h4.266zm13.774 10.852.346 6.284c1.016-2.23 2.35-3.962 4.027-5.166 1.677-1.21 3.643-1.824 5.89-1.824 3.397 0 6.01 1.256 7.82 3.78 1.821 2.518 2.717 6.434 2.717 11.749v23.191h-4.248V306.72c0-4.343-.635-7.377-1.897-9.137-1.268-1.76-3.103-2.636-5.517-2.636-2.157 0-3.962.701-5.412 2.126-1.455 1.412-2.545 3.294-3.266 5.666v27.134h-4.224V291.86zm42.074 3.021q-3.978 0-6.518 3.613-2.547 3.62-2.66 8.938h17.54v-1.626c0-3.137-.731-5.75-2.21-7.822-1.476-2.075-3.525-3.103-6.152-3.103m.602 35.735c-4.11 0-7.456-1.543-10.048-4.621q-3.903-4.61-3.903-11.793v-6.313c0-4.798 1.302-8.798 3.91-11.979q3.924-4.75 9.439-4.75c3.978 0 7.077 1.413 9.283 4.246 2.197 2.837 3.3 6.65 3.3 11.434v4.171h-21.76v3.162c0 3.68.887 6.744 2.642 9.19 1.754 2.45 4.133 3.666 7.137 3.666 2.08 0 3.88-.367 5.382-1.089a11.16 11.16 0 0 0 3.897-3.132l1.725 2.99c-1.156 1.456-2.64 2.633-4.454 3.505-1.81.868-3.998 1.312-6.55 1.312"
     id="path3"
     style="stroke-width:15.11811024;stroke-dasharray:none" />
  <path
     fill="#6d6e71"
     d="M487.93 322.997c-.94 1.926-2.664 3.691-5.188 5.289-2.52 1.607-5.722 2.406-9.611 2.406-5.132 0-9.259-1.617-12.394-4.887-3.122-3.243-4.686-7.92-4.686-14.022V296.57c0-5.97 1.473-10.548 4.431-13.743 2.95-3.17 6.903-4.78 11.84-4.78 4.824 0 8.564 1.27 11.212 3.781 2.639 2.519 4.025 6.038 4.146 10.532l-.066.2h-3.94c-.14-3.443-1.14-6.101-3.022-7.979-1.871-1.861-4.655-2.803-8.33-2.803-3.72 0-6.668 1.259-8.823 3.785-2.15 2.518-3.224 6.17-3.224 10.968v15.301q.001 7.462 3.476 11.382c2.316 2.592 5.438 3.892 9.38 3.892 2.876 0 5.19-.51 6.92-1.554 1.738-1.028 2.942-2.285 3.624-3.775V308.45h-10.618v-3.704h14.873zm19.557 3.902c2.336 0 4.416-.661 6.232-2.01 1.82-1.353 3.096-3.063 3.852-5.146v-8.224h-6.756q-4.31 0-6.896 2.442c-1.726 1.617-2.581 3.637-2.581 6.037 0 2.03.534 3.696 1.616 4.981 1.08 1.289 2.59 1.92 4.533 1.92m10.715 3.068a99 99 0 0 1-.48-3.225 22 22 0 0 1-.15-2.562 14.9 14.9 0 0 1-4.483 4.675c-1.836 1.236-3.878 1.848-6.128 1.848-3.147 0-5.567-.975-7.28-2.927-1.702-1.96-2.563-4.6-2.563-7.936 0-3.523 1.237-6.35 3.72-8.448 2.48-2.098 5.85-3.147 10.09-3.147h6.643v-4.672c0-2.686-.686-4.802-2.032-6.331-1.375-1.51-3.264-2.275-5.701-2.275-2.268 0-4.139.722-5.608 2.182-1.463 1.45-2.19 3.224-2.19 5.337l-3.944-.035-.07-.206c-.11-2.866.973-5.4 3.261-7.646 2.279-2.24 5.203-3.352 8.761-3.352 3.517 0 6.347 1.069 8.509 3.2q3.224 3.227 3.226 9.21v18.645c0 1.358.064 2.677.183 3.936a25 25 0 0 0 .627 3.729zm16.905-38.108.36 5.9c1-2.112 2.339-3.739 3.998-4.896q2.498-1.711 5.874-1.711c2.296 0 4.232.668 5.794 2.02 1.562 1.347 2.714 3.387 3.446 6.127.938-2.529 2.264-4.528 3.986-5.975 1.722-1.45 3.812-2.172 6.23-2.172 3.335 0 5.923 1.35 7.755 4.05 1.841 2.705 2.759 6.856 2.759 12.464v22.207h-4.246v-22.28c0-4.663-.645-7.946-1.9-9.834-1.261-1.89-3.071-2.842-5.41-2.842-2.462 0-4.384 1.04-5.767 3.152-1.375 2.112-2.223 4.754-2.531 7.945v23.86h-4.224v-22.258c0-4.554-.639-7.812-1.945-9.759-1.299-1.946-3.107-2.912-5.427-2.912-2.218 0-4.013.677-5.358 2.02-1.353 1.349-2.315 3.195-2.899 5.538v27.369h-4.22v-38.014zm61.457 3.021q-3.966 0-6.517 3.613c-1.705 2.415-2.585 5.392-2.656 8.938h17.537v-1.626c0-3.137-.736-5.75-2.21-7.822-1.482-2.075-3.53-3.103-6.154-3.103m.598 35.735c-4.099 0-7.451-1.543-10.055-4.621q-3.895-4.61-3.896-11.793v-6.313c0-4.798 1.303-8.798 3.912-11.979 2.616-3.167 5.758-4.75 9.441-4.75 3.983 0 7.068 1.413 9.27 4.246q3.313 4.257 3.312 11.434v4.171H587.39v3.162c0 3.68.882 6.744 2.635 9.19 1.757 2.45 4.144 3.666 7.136 3.666 2.077 0 3.888-.367 5.396-1.089a11.1 11.1 0 0 0 3.877-3.132l1.728 2.99c-1.148 1.456-2.634 2.633-4.45 3.505-1.811.868-4 1.312-6.551 1.312m46.411-35.734q-3.976 0-6.528 3.613-2.54 3.62-2.652 8.938h17.54v-1.626c0-3.137-.733-5.75-2.216-7.822-1.475-2.075-3.52-3.103-6.144-3.103m.593 35.735c-4.1 0-7.446-1.543-10.045-4.621q-3.91-4.61-3.91-11.793v-6.313c0-4.798 1.309-8.798 3.913-11.979 2.623-3.167 5.766-4.75 9.45-4.75 3.975 0 7.072 1.413 9.27 4.246 2.2 2.837 3.304 6.65 3.304 11.434v4.171h-21.755v3.162q0 5.52 2.647 9.19c1.747 2.45 4.124 3.666 7.125 3.666 2.087 0 3.888-.367 5.392-1.089a11.2 11.2 0 0 0 3.894-3.132l1.717 2.99c-1.15 1.456-2.633 2.633-4.451 3.505-1.81.868-3.997 1.312-6.55 1.312m23.189-38.755.345 6.284c1.014-2.23 2.353-3.962 4.034-5.166 1.667-1.21 3.63-1.824 5.887-1.824 3.396 0 5.998 1.256 7.804 3.78 1.826 2.518 2.73 6.434 2.73 11.749v23.191h-4.249V306.72c0-4.343-.636-7.377-1.9-9.137-1.258-1.76-3.107-2.636-5.513-2.636-2.158 0-3.968.701-5.419 2.126-1.457 1.412-2.543 3.294-3.267 5.666v27.134h-4.219V291.86zm33.27 22.395c0 3.858.73 6.926 2.213 9.208 1.465 2.304 3.695 3.443 6.671 3.443 2.04 0 3.757-.544 5.167-1.657 1.405-1.113 2.514-2.662 3.336-4.627V301.79c-.79-2.025-1.874-3.66-3.244-4.92-1.368-1.24-3.102-1.863-5.186-1.863-2.97 0-5.216 1.294-6.708 3.891-1.502 2.603-2.25 5.995-2.25 10.161zm-4.262-5.195c0-5.386 1.088-9.714 3.274-12.975 2.169-3.245 5.187-4.871 9.03-4.871 2.134 0 4.007.52 5.607 1.564 1.603 1.024 2.928 2.523 3.992 4.43l.412-5.287h3.581v38.048c0 4.871-1.13 8.646-3.4 11.317-2.271 2.66-5.499 4.009-9.666 4.009-1.5 0-3.11-.235-4.832-.691-1.724-.456-3.252-1.054-4.59-1.805l1.168-3.704a14.1 14.1 0 0 0 3.831 1.716 15.2 15.2 0 0 0 4.352.616q4.536-.001 6.71-2.905c1.452-1.961 2.18-4.798 2.18-8.553v-4.597c-1.079 1.71-2.402 3.024-3.97 3.93-1.563.912-3.39 1.368-5.448 1.368-3.818 0-6.814-1.496-8.976-4.486-2.167-2.983-3.255-6.965-3.255-11.93zm40.2 20.916h-4.266V291.86h4.266zm0-48.968h-4.266v-6.005h4.266zm13.774 10.852.346 6.284c1.016-2.23 2.35-3.962 4.027-5.166 1.677-1.21 3.643-1.824 5.89-1.824 3.397 0 6.01 1.256 7.82 3.78 1.821 2.518 2.717 6.434 2.717 11.749v23.191h-4.248V306.72c0-4.343-.635-7.377-1.897-9.137-1.268-1.76-3.103-2.636-5.517-2.636-2.157 0-3.962.701-5.412 2.126-1.455 1.412-2.545 3.294-3.266 5.666v27.134h-4.224V291.86zm42.074 3.021q-3.978 0-6.518 3.613-2.547 3.62-2.66 8.938h17.54v-1.626c0-3.137-.731-5.75-2.21-7.822-1.476-2.075-3.525-3.103-6.152-3.103m.602 35.735c-4.11 0-7.456-1.543-10.048-4.621q-3.903-4.61-3.903-11.793v-6.313c0-4.798 1.302-8.798 3.91-11.979q3.924-4.75 9.439-4.75c3.978 0 7.077 1.413 9.283 4.246 2.197 2.837 3.3 6.65 3.3 11.434v4.171h-21.76v3.162c0 3.68.887 6.744 2.642 9.19 1.754 2.45 4.133 3.666 7.137 3.666 2.08 0 3.88-.367 5.382-1.089a11.16 11.16 0 0 0 3.897-3.132l1.725 2.99c-1.156 1.456-2.64 2.633-4.454 3.505-1.81.868-3.998 1.312-6.55 1.312"
     id="path4"
     style="stroke-width:0;stroke-dasharray:none;fill:#000000" />
  <text
     xml:space="preserve"
     id="text12"
     style="font-style:normal;font-weight:normal;font-size:133.333px;line-height:1.25;font-family:sans-serif;white-space:pre;shape-inside:url(#rect12);shape-padding:1.69243;display:inline;fill:#414042;fill-opacity:1;stroke:none"
     transform="matrix(1.2590651,0,0,1.3005865,-117.44255,-75.813769)"><tspan
       x="443.46484"
       y="251.76754"
       id="tspan4"><tspan
         style="font-family:'Berlin Sans FB Demi';-inkscape-font-specification:'Berlin Sans FB Demi'"
         id="tspan3">REDOT</tspan></tspan></text>
  <g
     id="g2"
     transform="matrix(1.0964494,0,0,1.1760001,-7.253433,-35.844339)"
     style="stroke-dasharray:none;paint-order:stroke fill markers">
    <path
       style="fill:#38b6ff;fill-opacity:1;stroke-linecap:butt;stroke-linejoin:miter;stroke-opacity:1;stroke-dasharray:none;paint-order:stroke fill markers"
       d="M 80.320127,73.577164 H 271.75041 c 47.16976,0 86.27164,41.282346 86.27164,97.557486 0,40.86442 -20.8057,67.29337 -52.54702,85.23447 33.61503,38.39075 75.05729,86.22914 75.05729,86.22914 l -42.29657,-0.36405 c -12.49216,-0.1076 -30.73916,-8.18466 -42.83646,-21.41965 -12.09726,-13.23489 -88.10844,-100.10615 -88.10844,-100.10615 l 53.99856,0.0463 c 18.56913,0.0168 44.49737,-18.69861 44.49737,-49.24507 0,-30.52974 -27.01691,-49.98837 -43.34998,-49.98837 H 147.49532 c -23.88781,0 -38.71789,-15.97405 -45.87652,-23.326678 C 93.579364,89.937228 80.320127,73.577168 80.320127,73.577164 Z"
       id="path1-3"
       sodipodi:nodetypes="cssccsscsssssc" />
    <path
       style="fill:#38b6ff;fill-opacity:1;stroke-linecap:butt;stroke-linejoin:miter;stroke-opacity:1;stroke-dasharray:none;paint-order:stroke fill markers"
       d="M 41.829282,144.3515 H 185.38916 c 29.8267,0 63.4577,49.84679 63.4577,49.84679 h -96.16457 l 127.98538,146.82838 h -45.13503 c -18.11808,0 -29.87564,-8.46279 -40.16434,-18.75145 C 185.07964,311.98656 41.829282,144.3515 41.829282,144.3515 Z"
       id="path2-6"
       sodipodi:nodetypes="cscccssc" />
  </g>
</svg>
