<svg id="svg" version="1.1" xmlns="http://www.w3.org/2000/svg" xmlns:xlink="http://www.w3.org/1999/xlink" width="400" height="400" viewBox="0, 0, 400,400"><g id="svgg"><path id="path0" d="M139.675 86.678 L 138.750 86.862 139.675 87.809 C 141.809 89.995,146.800 95.809,146.800 96.109 C 146.800 96.494,151.875 101.362,153.265 102.311 C 156.517 104.531,157.691 105.206,158.710 105.446 C 159.310 105.587,160.430 106.085,161.200 106.551 C 162.587 107.392,162.891 107.402,193.600 107.600 C 222.256 107.785,224.698 107.853,225.893 108.507 C 226.604 108.895,227.997 109.325,228.988 109.460 C 229.979 109.596,231.367 110.133,232.073 110.654 C 232.778 111.174,233.499 111.600,233.674 111.600 C 235.101 111.600,242.224 118.711,242.629 120.541 C 242.768 121.168,243.210 122.010,243.612 122.412 C 244.014 122.814,244.469 124.010,244.623 125.071 C 244.778 126.132,245.167 127.518,245.488 128.150 C 246.303 129.754,246.301 136.596,245.485 137.528 C 245.162 137.898,244.777 139.042,244.629 140.072 C 244.481 141.101,244.041 142.361,243.653 142.872 C 243.264 143.382,242.711 144.385,242.424 145.100 C 242.138 145.815,241.749 146.400,241.562 146.400 C 241.374 146.400,240.941 146.940,240.600 147.600 C 240.259 148.260,239.735 148.800,239.436 148.800 C 239.138 148.800,238.799 149.159,238.685 149.598 C 238.570 150.037,238.171 150.513,237.798 150.656 C 237.425 150.799,236.702 151.295,236.191 151.758 C 234.359 153.418,232.913 154.356,231.766 154.630 C 231.125 154.782,230.294 155.173,229.920 155.498 C 228.832 156.442,224.218 156.764,211.484 156.782 C 200.752 156.798,199.620 156.862,200.084 157.422 C 200.661 158.118,202.049 159.711,203.700 161.573 C 204.305 162.256,204.800 162.991,204.800 163.207 C 204.800 163.423,205.064 163.600,205.386 163.600 C 205.708 163.600,206.162 163.956,206.395 164.391 C 206.628 164.826,207.277 165.681,207.838 166.291 C 208.398 166.901,209.188 167.760,209.592 168.200 C 209.996 168.640,211.379 170.263,212.664 171.807 C 213.949 173.352,215.318 174.972,215.707 175.407 C 216.096 175.843,216.906 176.769,217.507 177.465 C 219.672 179.970,222.639 183.303,224.688 185.530 C 225.837 186.779,226.782 188.004,226.788 188.254 C 226.795 188.504,227.250 189.003,227.800 189.363 C 228.350 189.724,228.800 190.176,228.800 190.369 C 228.800 190.561,229.655 191.615,230.700 192.711 C 231.745 193.806,233.500 195.746,234.600 197.022 C 235.700 198.297,236.960 199.754,237.400 200.259 C 237.840 200.763,238.740 201.815,239.400 202.596 C 241.626 205.230,243.535 207.200,243.869 207.206 C 244.051 207.210,244.809 207.750,245.554 208.406 C 246.299 209.063,247.126 209.600,247.392 209.600 C 247.658 209.600,248.185 209.941,248.563 210.359 C 248.940 210.776,250.093 211.330,251.125 211.589 C 252.156 211.848,253.334 212.362,253.741 212.730 C 254.389 213.316,255.869 213.416,265.491 213.524 C 277.087 213.654,278.354 213.550,277.032 212.578 C 276.610 212.267,275.980 211.580,275.632 211.051 C 275.050 210.165,272.848 207.528,270.400 204.786 C 269.850 204.169,268.590 202.736,267.600 201.600 C 266.610 200.465,265.260 198.953,264.600 198.241 C 261.689 195.100,257.200 189.640,257.200 189.239 C 257.200 188.998,256.936 188.800,256.614 188.800 C 256.292 188.800,255.813 188.395,255.551 187.900 C 255.288 187.405,254.742 186.765,254.337 186.477 C 253.931 186.190,253.600 185.801,253.600 185.614 C 253.600 185.427,252.835 184.485,251.900 183.521 C 250.965 182.557,249.300 180.697,248.200 179.387 C 247.100 178.077,245.990 176.781,245.732 176.506 C 243.992 174.649,244.514 171.600,246.572 171.600 C 246.838 171.600,247.437 171.195,247.902 170.700 C 248.367 170.205,249.494 169.260,250.405 168.600 C 252.625 166.992,256.266 163.351,257.503 161.500 C 258.055 160.675,258.641 160.000,258.805 160.000 C 258.969 160.000,259.328 159.456,259.604 158.791 C 259.879 158.125,260.311 157.450,260.564 157.291 C 260.816 157.131,261.360 156.235,261.772 155.300 C 262.184 154.365,262.666 153.600,262.843 153.600 C 263.019 153.600,263.282 152.968,263.427 152.197 C 263.572 151.425,264.016 150.379,264.414 149.874 C 264.811 149.368,265.344 147.794,265.597 146.377 C 265.851 144.960,266.360 143.350,266.729 142.800 C 267.731 141.307,267.728 124.885,266.726 122.795 C 266.356 122.023,265.931 120.403,265.782 119.195 C 265.632 117.980,265.101 116.375,264.593 115.600 C 264.088 114.830,263.557 113.627,263.412 112.928 C 263.267 112.228,262.899 111.448,262.595 111.196 C 262.290 110.943,261.838 110.120,261.589 109.368 C 261.341 108.616,260.969 108.000,260.763 108.000 C 260.556 108.000,260.075 107.325,259.694 106.500 C 259.312 105.675,258.685 104.765,258.300 104.477 C 257.915 104.190,257.600 103.779,257.600 103.564 C 257.600 103.349,256.025 101.666,254.100 99.823 C 249.286 95.214,248.819 94.800,248.441 94.800 C 248.259 94.800,247.431 94.260,246.600 93.600 C 245.769 92.940,244.783 92.400,244.407 92.400 C 244.031 92.400,243.415 92.059,243.037 91.641 C 242.660 91.224,241.577 90.688,240.631 90.450 C 239.686 90.211,238.698 89.759,238.436 89.443 C 238.174 89.128,237.024 88.747,235.880 88.597 C 234.736 88.447,233.170 87.937,232.400 87.462 L 231.000 86.600 185.800 86.546 C 160.940 86.517,140.184 86.576,139.675 86.678 M123.500 122.276 C 122.568 122.519,122.615 122.739,123.800 123.671 C 124.350 124.104,124.800 124.715,124.800 125.029 C 124.800 125.343,125.064 125.600,125.386 125.600 C 125.708 125.600,126.162 125.956,126.395 126.391 C 126.628 126.826,127.278 127.681,127.839 128.291 C 131.767 132.559,134.800 136.247,134.800 136.754 C 134.800 136.999,135.064 137.200,135.386 137.200 C 135.708 137.200,136.186 137.605,136.447 138.100 C 136.708 138.595,137.299 139.382,137.761 139.850 C 138.505 140.604,139.738 141.983,143.722 146.522 C 144.339 147.225,145.284 148.252,145.822 148.804 C 146.360 149.357,146.800 150.011,146.800 150.258 C 146.800 150.506,147.250 151.003,147.800 151.363 C 148.350 151.724,148.800 152.272,148.800 152.582 C 148.800 152.892,149.160 153.260,149.600 153.400 C 150.040 153.540,150.400 153.816,150.400 154.013 C 150.400 154.211,150.895 154.903,151.500 155.552 C 152.626 156.760,153.124 157.327,156.600 161.356 C 157.700 162.630,159.095 164.224,159.700 164.896 C 160.305 165.568,160.800 166.362,160.800 166.659 C 160.800 166.957,161.064 167.200,161.386 167.200 C 161.708 167.200,162.162 167.556,162.395 167.991 C 162.628 168.426,163.219 169.219,163.709 169.753 C 164.199 170.287,164.816 170.966,165.081 171.262 C 165.345 171.558,165.795 172.011,166.081 172.269 C 166.366 172.527,167.022 173.247,167.537 173.869 C 168.052 174.491,169.443 176.080,170.628 177.400 C 171.812 178.720,172.786 179.954,172.791 180.142 C 172.796 180.331,173.250 180.839,173.800 181.271 C 174.350 181.704,174.800 182.303,174.800 182.602 C 174.800 182.901,175.160 183.260,175.600 183.400 C 176.040 183.540,176.400 183.795,176.400 183.968 C 176.400 184.140,176.895 184.828,177.500 185.496 C 178.105 186.164,179.500 187.735,180.600 188.986 C 181.700 190.237,183.540 192.282,184.688 193.530 C 185.837 194.779,186.782 195.959,186.788 196.154 C 186.795 196.349,187.205 196.913,187.700 197.408 C 188.195 197.903,189.464 199.274,190.521 200.454 C 194.792 205.225,197.120 207.600,197.526 207.600 C 197.762 207.600,198.190 207.924,198.477 208.320 C 198.765 208.716,199.572 209.273,200.271 209.557 C 200.970 209.841,201.853 210.417,202.233 210.837 C 202.613 211.256,203.308 211.600,203.777 211.600 C 204.247 211.600,205.344 211.999,206.215 212.486 C 207.822 213.385,227.044 214.128,229.932 213.403 L 230.915 213.156 230.058 212.555 C 229.586 212.225,229.200 211.798,229.200 211.606 C 229.200 211.414,228.401 210.389,227.425 209.329 C 224.527 206.182,224.317 205.945,221.449 202.604 C 219.936 200.842,218.456 199.130,218.160 198.800 C 216.436 196.875,215.201 195.460,213.600 193.572 C 212.610 192.405,211.460 191.099,211.044 190.670 C 210.629 190.240,209.054 188.429,207.545 186.644 C 206.036 184.860,204.441 183.034,204.000 182.586 C 203.560 182.138,203.200 181.642,203.200 181.484 C 203.200 181.325,202.390 180.397,201.400 179.421 C 200.410 178.445,199.600 177.528,199.600 177.384 C 199.600 177.239,199.105 176.634,198.500 176.038 C 197.256 174.813,194.392 171.580,192.600 169.377 C 191.940 168.566,190.950 167.399,190.400 166.784 C 189.850 166.169,188.590 164.729,187.600 163.585 C 186.610 162.440,185.437 161.121,184.993 160.652 C 182.541 158.062,177.200 151.635,177.200 151.275 C 177.200 151.043,176.840 150.740,176.400 150.600 C 175.960 150.460,175.600 150.177,175.600 149.970 C 175.600 149.764,175.150 149.203,174.600 148.725 C 174.050 148.247,173.600 147.646,173.600 147.390 C 173.600 147.134,173.240 146.598,172.800 146.200 C 170.084 143.742,171.244 143.603,194.674 143.572 C 206.293 143.556,216.160 143.389,216.600 143.200 C 217.247 142.922,217.272 142.851,216.727 142.828 C 216.357 142.813,215.938 142.435,215.797 141.989 C 215.655 141.543,215.103 140.893,214.570 140.543 C 214.036 140.194,213.600 139.738,213.600 139.531 C 213.600 139.323,212.835 138.393,211.900 137.464 C 210.965 136.535,209.722 135.150,209.138 134.387 C 207.172 131.820,201.353 126.400,200.563 126.400 C 200.278 126.400,199.810 126.067,199.523 125.661 C 199.235 125.254,198.343 124.800,197.541 124.650 C 196.738 124.501,195.658 124.050,195.141 123.648 C 193.228 122.160,189.274 121.998,156.084 122.046 C 138.548 122.072,123.885 122.175,123.500 122.276 " stroke="none" fill="#3cb2fa" fill-rule="evenodd"></path><path id="path1" d="M142.400 232.666 C 141.850 232.780,141.130 233.097,140.800 233.371 C 140.470 233.644,139.660 234.083,139.000 234.345 C 135.098 235.894,131.659 241.823,131.614 247.075 C 131.499 260.642,148.069 267.257,157.406 257.372 C 163.649 250.762,161.720 237.816,154.000 234.518 C 153.230 234.189,152.286 233.641,151.901 233.299 C 151.183 232.661,144.563 232.220,142.400 232.666 M265.600 232.742 C 262.027 233.803,256.400 237.891,256.400 239.425 C 256.400 239.688,255.929 240.933,255.353 242.190 C 252.412 248.614,255.810 257.040,262.800 260.661 C 269.122 263.935,279.140 260.915,281.819 254.927 C 282.132 254.227,282.571 253.542,282.794 253.404 C 283.017 253.266,283.200 251.654,283.200 249.823 C 283.200 245.768,283.718 246.013,275.108 246.005 L 268.815 246.000 268.574 246.959 C 267.946 249.465,268.303 249.783,272.000 250.000 C 276.020 250.236,276.400 250.425,276.400 252.190 C 276.400 254.249,273.873 256.100,270.757 256.326 C 263.927 256.820,260.419 252.617,261.370 245.078 C 262.158 238.834,270.896 235.896,274.776 240.571 C 275.170 241.046,276.071 241.200,278.449 241.200 L 281.600 241.200 281.600 239.976 C 281.600 238.491,278.171 234.629,276.478 234.207 C 275.885 234.059,275.088 233.657,274.707 233.313 C 273.938 232.620,267.393 232.209,265.600 232.742 M50.609 234.900 C 50.472 236.055,50.414 242.483,50.480 249.185 L 50.600 261.370 52.115 261.728 C 52.948 261.925,54.418 261.968,55.382 261.824 L 57.134 261.561 57.267 256.821 C 57.419 251.406,58.138 249.677,59.665 251.059 C 60.069 251.425,60.400 251.952,60.400 252.231 C 60.400 252.510,60.838 253.260,61.374 253.896 C 61.910 254.533,62.469 255.537,62.617 256.127 C 62.766 256.717,63.025 257.200,63.194 257.200 C 63.363 257.200,63.874 258.067,64.330 259.126 C 65.290 261.357,66.366 262.000,69.142 262.000 C 72.775 262.000,72.834 261.540,69.864 256.400 C 66.571 250.700,66.590 251.007,69.393 248.770 C 72.571 246.234,73.653 242.284,72.264 238.295 C 71.721 236.736,69.775 234.400,69.019 234.400 C 68.782 234.400,67.916 234.040,67.096 233.600 C 65.758 232.883,64.839 232.800,58.230 232.800 L 50.858 232.800 50.609 234.900 M78.650 234.050 C 77.936 237.620,78.384 261.163,79.174 261.586 C 79.629 261.830,83.066 262.000,87.525 262.000 C 96.315 262.000,96.363 261.982,95.764 258.882 L 95.400 257.000 91.000 256.895 C 85.727 256.770,85.200 256.418,85.200 253.018 C 85.200 250.025,85.798 249.602,90.031 249.594 C 94.178 249.586,94.600 249.351,94.600 247.048 C 94.600 244.675,94.555 244.649,89.960 244.409 C 85.477 244.174,85.216 244.006,85.206 241.344 C 85.195 238.445,85.896 238.026,90.957 237.905 C 95.998 237.784,96.271 237.602,95.831 234.667 L 95.551 232.800 87.225 232.800 L 78.900 232.800 78.650 234.050 M102.257 233.683 C 101.666 235.888,101.978 261.084,102.603 261.602 C 103.991 262.754,116.221 261.913,119.315 260.452 C 130.720 255.068,130.494 238.696,118.950 233.992 C 116.838 233.132,115.885 233.021,109.551 232.900 L 102.502 232.766 102.257 233.683 M164.595 234.837 C 164.233 237.469,164.482 237.676,168.279 237.908 C 172.716 238.180,172.400 237.266,172.400 249.816 C 172.400 255.821,172.509 261.019,172.643 261.367 C 172.938 262.137,176.224 262.245,177.781 261.536 L 178.800 261.072 178.800 250.198 C 178.800 237.575,178.671 238.000,182.513 238.000 C 186.493 238.000,187.659 236.724,186.336 233.819 L 185.872 232.800 175.373 232.800 L 164.875 232.800 164.595 234.837 M200.652 233.700 C 200.336 234.880,200.327 260.545,200.643 261.367 C 200.853 261.915,201.969 262.000,208.994 262.000 C 218.375 262.000,218.367 262.003,217.764 258.882 L 217.400 257.000 212.666 256.800 C 207.141 256.567,206.800 256.343,206.800 252.946 C 206.800 250.090,207.526 249.602,211.789 249.594 C 215.787 249.586,216.200 249.344,216.200 247.000 C 216.200 244.638,215.799 244.414,211.562 244.406 C 207.543 244.399,206.800 243.923,206.800 241.358 C 206.800 238.348,207.399 238.000,212.574 238.000 C 217.947 238.000,218.217 237.835,217.802 234.812 L 217.525 232.800 209.209 232.800 C 200.923 232.800,200.892 232.803,200.652 233.700 M224.252 233.700 C 223.763 235.525,223.972 261.012,224.480 261.520 C 224.744 261.784,225.878 262.000,227.000 262.000 C 230.019 262.000,230.000 262.055,230.000 253.596 C 230.000 243.878,231.030 242.825,234.368 249.130 C 234.639 249.642,235.202 250.402,235.620 250.820 C 236.038 251.238,236.494 252.034,236.633 252.590 C 236.773 253.145,237.017 253.600,237.177 253.600 C 237.437 253.600,238.283 254.788,241.537 259.724 C 243.040 262.003,245.679 262.710,248.574 261.610 L 249.600 261.220 249.595 247.910 C 249.588 231.431,249.896 232.738,246.049 232.884 L 243.000 233.000 242.800 240.400 C 242.690 244.470,242.454 248.025,242.276 248.300 C 241.697 249.195,240.444 248.846,239.806 247.611 C 239.242 246.521,237.643 243.974,236.906 242.993 C 236.452 242.390,233.904 238.499,232.392 236.103 C 230.272 232.742,224.931 231.165,224.252 233.700 M288.643 233.433 C 288.150 234.717,288.372 261.012,288.880 261.520 C 289.492 262.132,292.452 262.142,293.781 261.536 L 294.800 261.072 294.800 248.264 C 294.800 232.547,294.856 232.800,291.362 232.800 C 289.473 232.800,288.828 232.950,288.643 233.433 M300.650 234.050 C 299.936 237.620,300.384 261.163,301.174 261.586 C 302.150 262.108,304.829 262.121,306.174 261.610 L 307.200 261.220 307.200 254.038 C 307.200 243.654,307.960 243.180,312.618 250.655 C 313.442 251.977,316.129 256.065,317.681 258.358 C 320.135 261.984,322.640 262.967,325.781 261.536 L 326.800 261.072 326.800 248.195 C 326.800 232.463,326.874 232.800,323.404 232.800 C 320.257 232.800,320.410 232.392,320.360 240.933 C 320.303 250.728,319.928 251.549,317.251 247.721 C 314.515 243.806,314.054 243.127,311.479 239.200 C 306.983 232.346,307.516 232.800,303.975 232.800 L 300.900 232.800 300.650 234.050 M332.800 247.175 L 332.800 261.551 334.500 261.796 C 335.435 261.930,339.151 261.986,342.757 261.920 C 350.239 261.783,350.294 261.758,349.831 258.667 L 349.551 256.800 345.204 256.800 C 339.864 256.800,339.600 256.622,339.600 253.020 C 339.600 249.814,339.750 249.708,344.515 249.539 C 348.787 249.387,349.188 249.170,349.188 247.000 C 349.188 244.865,348.798 244.654,344.527 244.474 C 339.798 244.276,339.600 244.145,339.600 241.231 C 339.600 238.130,339.809 238.000,344.800 238.000 C 349.462 238.000,350.003 237.773,349.995 235.820 C 349.980 232.621,350.504 232.800,341.153 232.800 L 332.800 232.800 332.800 247.175 M65.111 239.177 C 69.159 242.875,62.658 249.113,58.176 245.831 C 57.204 245.120,57.034 239.763,57.949 238.661 C 58.981 237.419,63.545 237.747,65.111 239.177 M116.160 239.055 C 119.946 241.013,120.600 242.219,120.600 247.238 C 120.600 252.121,120.290 252.834,117.230 254.999 C 115.303 256.362,109.800 256.996,108.592 255.994 C 107.661 255.221,107.724 239.768,108.662 238.731 C 109.722 237.560,113.593 237.727,116.160 239.055 M150.405 239.149 C 154.655 241.819,156.170 248.403,153.441 252.340 C 148.288 259.777,137.987 256.314,138.004 247.150 C 138.017 240.213,144.964 235.731,150.405 239.149 " stroke="none" fill="#f0eff2" fill-rule="evenodd"></path><path id="path2" d="M0.000 200.000 L 0.000 400.000 200.000 400.000 L 400.000 400.000 400.000 200.000 L 400.000 0.000 200.000 0.000 L 0.000 0.000 0.000 200.000 M230.139 85.586 C 232.085 85.791,234.068 86.214,234.545 86.527 C 235.022 86.839,236.039 87.225,236.806 87.384 C 238.098 87.651,242.621 89.566,244.000 90.430 C 244.330 90.637,245.050 91.026,245.600 91.295 C 246.652 91.810,251.237 95.189,252.600 96.454 C 253.040 96.863,254.131 97.873,255.024 98.699 C 258.378 101.798,262.568 107.515,264.187 111.200 C 264.525 111.970,265.162 113.266,265.601 114.079 C 266.040 114.893,266.400 115.848,266.400 116.201 C 266.400 116.555,266.774 117.664,267.230 118.666 C 267.723 119.748,268.220 122.056,268.452 124.344 C 268.668 126.465,268.996 129.280,269.181 130.600 C 269.650 133.935,268.482 142.958,267.007 147.400 C 265.670 151.425,261.908 158.800,261.192 158.800 C 260.976 158.800,260.800 159.068,260.800 159.395 C 260.800 160.936,251.222 170.800,249.725 170.800 C 249.452 170.800,249.047 171.139,248.825 171.554 C 248.603 171.969,247.966 172.422,247.411 172.562 C 246.063 172.900,246.019 174.791,247.328 176.084 C 248.707 177.446,252.800 182.254,252.800 182.513 C 252.800 182.636,253.497 183.441,254.349 184.301 C 256.178 186.148,263.052 193.984,264.200 195.531 C 264.640 196.123,265.360 196.987,265.800 197.450 C 266.240 197.914,267.410 199.255,268.400 200.431 C 269.390 201.607,270.584 202.968,271.053 203.456 C 276.720 209.347,280.232 214.434,279.287 215.380 C 278.906 215.761,259.223 215.618,258.495 215.229 C 258.113 215.025,256.564 214.675,255.054 214.450 C 253.544 214.225,252.000 213.762,251.623 213.421 C 251.246 213.079,250.661 212.800,250.324 212.800 C 249.987 212.800,249.049 212.350,248.238 211.800 C 247.428 211.250,246.622 210.800,246.448 210.800 C 245.053 210.800,237.786 203.472,232.297 196.531 C 232.024 196.186,231.305 195.402,230.700 194.791 C 230.095 194.179,229.600 193.586,229.600 193.471 C 229.600 193.357,228.852 192.507,227.937 191.584 C 227.022 190.660,224.675 187.990,222.720 185.652 C 219.151 181.382,216.659 178.481,214.800 176.433 C 214.250 175.827,212.810 174.188,211.600 172.790 C 208.619 169.348,206.720 167.171,206.000 166.373 C 205.670 166.007,204.590 164.756,203.600 163.592 C 202.610 162.429,200.946 160.560,199.903 159.439 C 196.499 155.779,196.299 155.840,212.400 155.600 C 225.318 155.407,225.886 155.366,228.200 154.451 C 235.942 151.389,238.727 148.927,242.285 142.004 C 244.571 137.555,244.738 126.913,242.572 123.721 C 242.037 122.933,241.600 122.023,241.600 121.700 C 241.600 121.172,239.660 118.622,237.346 116.110 C 235.248 113.832,230.078 111.020,226.688 110.312 C 225.373 110.038,213.870 109.774,195.600 109.600 C 164.938 109.307,159.200 108.929,159.200 107.202 C 159.200 107.030,158.560 106.769,157.778 106.622 C 156.995 106.475,156.023 106.023,155.617 105.617 C 155.211 105.211,154.495 104.757,154.027 104.608 C 152.556 104.142,149.009 100.747,144.487 95.480 C 142.510 93.177,140.557 90.930,140.146 90.487 C 137.064 87.159,137.036 87.091,138.111 85.700 C 138.585 85.088,224.391 84.982,230.139 85.586 M190.140 120.573 C 190.833 120.888,192.421 121.347,193.669 121.595 C 194.917 121.842,196.140 122.286,196.386 122.583 C 196.632 122.879,197.320 123.243,197.916 123.392 C 201.050 124.175,206.312 128.622,211.658 135.007 C 214.887 138.863,215.931 140.055,217.619 141.814 C 218.510 142.743,218.616 143.624,217.920 144.320 C 217.559 144.681,212.137 144.800,195.975 144.800 L 174.511 144.800 174.716 145.900 C 174.829 146.505,175.299 147.379,175.760 147.842 C 176.222 148.305,177.465 149.685,178.522 150.907 C 179.579 152.130,180.839 153.576,181.322 154.120 C 182.508 155.456,184.656 157.964,185.725 159.260 C 186.206 159.844,187.500 161.339,188.600 162.584 C 189.700 163.829,190.960 165.263,191.400 165.771 C 192.965 167.578,196.613 171.756,197.400 172.643 C 197.840 173.139,198.740 174.217,199.400 175.037 C 200.060 175.858,201.050 177.021,201.600 177.622 C 202.150 178.223,203.465 179.708,204.522 180.923 C 205.579 182.137,206.839 183.575,207.322 184.119 C 207.805 184.662,208.740 185.770,209.400 186.581 C 210.060 187.392,211.095 188.533,211.700 189.117 C 212.305 189.701,212.800 190.310,212.800 190.471 C 212.800 190.632,213.205 191.187,213.700 191.705 C 216.271 194.392,220.602 199.303,223.669 203.008 C 224.401 203.893,225.360 204.999,225.800 205.467 C 226.240 205.935,227.050 206.865,227.600 207.534 C 228.150 208.203,229.455 209.688,230.500 210.834 C 232.437 212.959,232.859 214.321,231.842 215.165 C 230.202 216.526,206.276 215.047,204.447 213.470 C 204.091 213.164,203.260 212.733,202.600 212.512 C 201.470 212.135,199.379 210.873,197.271 209.295 C 196.759 208.913,195.174 207.430,193.748 206.000 C 190.093 202.336,189.600 201.804,189.600 201.526 C 189.600 201.391,188.745 200.401,187.700 199.325 C 186.655 198.250,184.000 195.221,181.800 192.594 C 179.600 189.968,177.305 187.338,176.700 186.749 C 176.095 186.161,175.600 185.607,175.600 185.519 C 175.600 185.431,174.745 184.392,173.700 183.209 C 169.252 178.176,167.126 175.739,166.367 174.800 C 165.535 173.772,164.565 172.656,161.819 169.574 C 160.010 167.543,152.948 159.377,152.019 158.243 C 151.679 157.827,150.995 157.119,150.500 156.671 C 150.005 156.223,149.600 155.726,149.600 155.568 C 149.600 155.410,148.745 154.392,147.700 153.306 C 146.655 152.220,145.080 150.463,144.200 149.402 C 143.320 148.340,141.930 146.736,141.111 145.836 C 140.292 144.936,139.617 144.092,139.611 143.960 C 139.605 143.827,138.745 142.794,137.700 141.663 C 135.322 139.089,133.217 136.698,129.681 132.556 C 126.918 129.319,125.859 128.126,124.381 126.586 C 123.951 126.138,123.600 125.596,123.600 125.382 C 123.600 125.168,123.242 124.769,122.805 124.496 C 121.455 123.653,120.604 121.133,121.458 120.508 C 122.550 119.709,188.376 119.771,190.140 120.573 M68.109 232.400 C 68.669 232.840,69.320 233.200,69.556 233.200 C 70.145 233.200,72.800 235.822,72.800 236.404 C 72.800 236.662,73.160 237.331,73.600 237.891 C 74.734 239.333,74.768 244.818,73.650 245.884 C 73.237 246.278,72.778 246.996,72.629 247.480 C 72.481 247.963,72.025 248.465,71.616 248.595 C 71.208 248.724,70.772 249.096,70.647 249.421 C 70.523 249.746,69.980 250.179,69.442 250.384 C 68.266 250.831,68.411 251.977,69.863 253.731 C 70.379 254.353,70.800 255.090,70.800 255.369 C 70.800 255.648,71.144 256.187,71.564 256.567 C 71.984 256.948,72.448 257.741,72.594 258.329 C 72.740 258.918,73.221 259.788,73.664 260.262 C 75.039 261.736,74.130 262.680,71.010 263.014 C 66.440 263.503,64.318 262.787,63.575 260.503 C 63.307 259.676,62.856 258.864,62.573 258.697 C 62.291 258.530,61.847 257.720,61.586 256.897 C 61.325 256.074,60.869 255.205,60.572 254.967 C 60.275 254.729,59.802 254.009,59.523 253.367 C 59.061 252.310,58.993 252.632,58.793 256.800 C 58.672 259.330,58.434 261.691,58.264 262.047 C 57.694 263.240,50.685 263.401,49.906 262.238 C 49.374 261.445,49.540 232.620,50.080 232.080 C 51.011 231.149,66.876 231.430,68.109 232.400 M96.306 232.100 C 96.952 232.899,97.292 236.506,96.835 237.708 L 96.420 238.800 91.647 238.800 L 86.875 238.800 86.603 240.782 C 86.222 243.546,86.304 243.600,90.892 243.600 C 95.856 243.600,96.403 243.934,96.394 246.962 C 96.384 250.260,95.440 250.800,89.683 250.800 L 86.360 250.800 86.480 253.100 L 86.600 255.400 91.261 255.512 C 94.712 255.596,96.046 255.774,96.398 256.198 C 97.073 257.010,97.134 261.821,96.478 262.477 C 95.658 263.300,78.514 263.228,77.991 262.400 C 77.398 261.460,77.482 232.678,78.080 232.080 C 78.778 231.382,95.741 231.401,96.306 232.100 M119.059 232.469 C 119.467 232.837,120.282 233.258,120.872 233.405 C 122.063 233.702,126.800 238.047,126.800 238.842 C 126.800 239.121,127.205 239.780,127.700 240.306 C 128.550 241.211,128.600 241.595,128.600 247.200 C 128.600 252.805,128.550 253.189,127.700 254.094 C 127.205 254.620,126.800 255.351,126.800 255.717 C 126.800 256.083,125.806 257.377,124.591 258.591 C 123.377 259.806,122.083 260.800,121.717 260.800 C 121.351 260.800,120.665 261.164,120.192 261.608 C 119.184 262.555,110.206 263.418,104.634 263.103 C 99.659 262.823,99.948 263.838,100.085 247.102 L 100.200 233.129 101.172 232.342 C 102.526 231.246,117.825 231.355,119.059 232.469 M153.600 232.600 C 154.345 233.150,155.158 233.600,155.406 233.600 C 155.653 233.600,156.239 234.005,156.708 234.500 C 157.177 234.995,157.745 235.580,157.971 235.800 C 159.366 237.159,160.453 238.675,160.675 239.569 C 160.816 240.136,161.307 241.110,161.766 241.734 C 163.015 243.431,162.961 251.445,161.689 253.166 C 161.219 253.800,160.717 254.793,160.572 255.370 C 160.427 255.948,159.969 256.603,159.554 256.825 C 159.139 257.047,158.800 257.423,158.800 257.660 C 158.800 258.183,156.006 260.800,155.448 260.800 C 155.230 260.800,154.669 261.159,154.202 261.598 C 152.261 263.421,141.528 263.526,138.901 261.748 C 138.295 261.338,137.305 260.786,136.700 260.521 C 136.095 260.256,135.600 259.789,135.600 259.484 C 135.600 259.178,135.150 258.723,134.600 258.473 C 134.050 258.222,133.600 257.771,133.600 257.471 C 133.600 257.170,133.238 256.597,132.796 256.196 C 132.354 255.796,131.733 254.643,131.416 253.634 C 131.099 252.625,130.545 250.990,130.184 250.000 C 129.454 247.993,129.650 244.812,130.595 243.358 C 130.896 242.896,131.265 241.860,131.416 241.057 C 131.850 238.741,135.991 233.890,137.954 233.397 C 138.495 233.261,139.380 232.802,139.922 232.375 C 141.600 231.056,151.733 231.222,153.600 232.600 M187.511 232.223 C 188.258 232.746,188.400 233.220,188.400 235.194 C 188.400 238.431,187.951 238.800,184.021 238.800 L 180.900 238.800 180.650 240.050 C 180.513 240.738,180.397 245.822,180.394 251.350 C 180.387 263.356,180.478 263.159,174.874 263.190 C 171.449 263.209,171.601 263.724,171.596 252.086 C 171.593 246.429,171.480 241.125,171.343 240.300 L 171.095 238.800 167.828 238.800 C 165.819 238.800,164.375 238.615,164.080 238.320 C 163.448 237.688,163.448 232.712,164.080 232.080 C 164.881 231.279,186.351 231.410,187.511 232.223 M218.306 232.100 C 218.952 232.899,219.292 236.506,218.835 237.708 L 218.420 238.800 213.634 238.800 L 208.849 238.800 208.580 240.595 C 208.141 243.520,208.247 243.598,212.687 243.613 C 217.864 243.630,218.357 244.079,218.072 248.520 C 217.969 250.122,216.102 250.800,211.793 250.800 L 208.360 250.800 208.480 253.100 L 208.600 255.400 213.261 255.512 C 216.712 255.596,218.046 255.774,218.398 256.198 C 219.071 257.008,219.134 261.820,218.481 262.477 C 217.795 263.168,201.641 263.464,200.415 262.808 C 199.424 262.278,199.105 233.055,200.080 232.080 C 200.778 231.382,217.741 231.401,218.306 232.100 M231.631 232.769 C 232.274 233.412,232.800 234.216,232.800 234.555 C 232.800 234.894,233.160 235.365,233.600 235.600 C 234.040 235.835,234.400 236.267,234.400 236.559 C 234.400 236.851,234.940 237.769,235.600 238.600 C 236.260 239.431,236.800 240.295,236.800 240.521 C 236.800 240.748,237.075 241.218,237.411 241.566 C 238.324 242.513,239.920 244.848,240.538 246.141 C 241.400 247.948,241.600 246.678,241.600 239.396 C 241.600 231.310,241.469 231.523,246.333 231.685 C 249.553 231.792,249.812 231.865,250.283 232.800 C 250.892 234.006,251.026 260.155,250.431 261.719 C 249.763 263.474,242.412 263.546,241.442 261.806 C 241.199 261.369,240.685 260.774,240.300 260.483 C 239.915 260.193,239.600 259.723,239.600 259.439 C 239.600 259.156,239.256 258.613,238.837 258.233 C 238.417 257.853,237.841 256.970,237.557 256.271 C 237.273 255.572,236.716 254.765,236.320 254.477 C 235.924 254.190,235.600 253.721,235.600 253.436 C 235.600 253.150,235.152 252.433,234.603 251.841 C 234.055 251.250,233.496 250.324,233.360 249.783 C 233.186 249.092,232.837 248.800,232.184 248.800 L 231.254 248.800 231.127 255.381 C 230.976 263.228,231.104 263.000,226.821 263.000 C 221.653 263.000,222.000 264.140,222.000 247.161 L 222.000 232.845 222.889 232.223 C 224.619 231.011,230.223 231.362,231.631 232.769 M276.109 232.400 C 276.669 232.840,277.334 233.200,277.587 233.200 C 279.902 233.200,284.557 240.711,282.965 241.875 C 281.191 243.172,274.845 242.971,273.876 241.587 C 272.315 239.359,266.206 239.663,263.894 242.084 C 262.665 243.372,262.637 243.484,262.623 247.288 L 262.609 251.177 264.204 252.588 C 265.082 253.364,266.141 254.295,266.558 254.657 C 267.874 255.801,271.580 255.620,273.107 254.338 C 273.802 253.754,274.602 253.194,274.885 253.093 C 276.030 252.685,274.577 252.204,271.768 252.062 C 267.406 251.842,265.500 248.269,268.029 245.054 L 268.858 244.000 275.410 244.000 C 282.939 244.000,283.797 244.230,284.455 246.424 C 285.099 248.575,284.560 253.694,283.568 254.837 C 283.146 255.324,282.800 255.939,282.800 256.204 C 282.800 256.976,278.759 260.800,277.943 260.800 C 277.534 260.800,277.200 260.989,277.200 261.220 C 277.200 261.452,276.525 261.927,275.700 262.276 C 272.496 263.631,261.200 262.809,261.200 261.220 C 261.200 260.989,260.847 260.800,260.415 260.800 C 259.546 260.800,255.741 257.056,255.341 255.808 C 255.202 255.372,254.739 254.545,254.314 253.969 C 253.260 252.544,253.368 241.049,254.442 240.265 C 254.795 240.008,255.222 239.348,255.391 238.798 C 255.816 237.416,259.563 233.780,260.900 233.453 C 261.505 233.306,262.000 233.002,262.000 232.779 C 262.000 231.361,274.365 231.028,276.109 232.400 M295.511 232.223 L 296.400 232.845 296.400 247.161 C 296.400 264.104,296.747 262.950,291.643 262.981 C 286.831 263.010,287.200 264.306,287.200 247.380 C 287.200 234.711,287.280 232.777,287.829 232.229 C 288.706 231.351,294.260 231.346,295.511 232.223 M308.395 232.391 C 308.628 232.826,309.264 233.628,309.809 234.173 C 310.354 234.718,310.800 235.371,310.800 235.624 C 310.800 235.877,311.250 236.619,311.800 237.273 C 312.350 237.927,312.800 238.698,312.800 238.988 C 312.800 239.277,313.072 239.619,313.403 239.746 C 313.735 239.873,314.223 240.478,314.488 241.089 C 314.752 241.700,315.381 242.709,315.884 243.331 C 316.388 243.953,316.800 244.718,316.800 245.031 C 316.800 245.344,317.064 245.600,317.387 245.600 C 317.710 245.600,318.243 246.095,318.571 246.700 C 319.119 247.709,319.169 247.182,319.184 240.329 C 319.197 234.084,319.303 232.754,319.829 232.229 C 320.706 231.351,326.260 231.346,327.511 232.223 L 328.400 232.845 328.400 247.194 C 328.400 263.498,328.600 262.568,325.003 263.017 C 320.642 263.562,318.446 262.765,317.399 260.259 C 317.064 259.457,316.602 258.800,316.374 258.800 C 316.145 258.800,315.770 258.260,315.540 257.600 C 315.310 256.940,314.949 256.400,314.738 256.400 C 314.528 256.400,313.997 255.590,313.559 254.600 C 313.121 253.610,312.603 252.800,312.408 252.800 C 312.213 252.800,311.926 252.395,311.770 251.900 C 311.614 251.405,310.972 250.374,310.343 249.609 C 309.715 248.844,309.182 247.944,309.160 247.609 C 308.977 244.814,308.472 250.318,308.440 255.451 C 308.407 260.822,308.294 261.990,307.765 262.429 C 306.880 263.164,300.430 263.091,299.955 262.341 C 299.390 261.450,299.509 232.651,300.080 232.080 C 300.973 231.187,307.889 231.445,308.395 232.391 M350.739 232.347 C 351.418 232.936,351.600 233.542,351.600 235.215 C 351.600 238.564,351.201 238.800,345.538 238.800 L 340.800 238.800 340.800 241.200 L 340.800 243.600 345.120 243.600 C 350.247 243.600,350.400 243.700,350.400 247.031 C 350.400 250.345,350.103 250.546,344.948 250.737 L 340.800 250.891 340.800 253.245 L 340.800 255.600 345.384 255.600 C 350.951 255.600,351.600 255.998,351.600 259.413 C 351.600 262.945,351.443 263.000,341.418 263.000 C 334.805 263.000,332.775 262.878,332.261 262.451 C 331.281 261.637,331.251 233.206,332.229 232.229 C 333.260 231.197,349.533 231.301,350.739 232.347 M58.800 242.200 L 58.800 245.200 60.900 245.187 C 64.531 245.166,66.962 241.586,64.200 240.327 C 63.650 240.077,63.200 239.720,63.200 239.536 C 63.200 239.351,62.210 239.200,61.000 239.200 L 58.800 239.200 58.800 242.200 M110.100 240.359 C 109.230 241.102,109.200 241.364,109.200 248.120 L 109.200 255.111 110.634 255.380 C 113.265 255.874,116.759 254.296,118.826 251.681 C 120.082 250.093,119.833 243.519,118.481 242.572 C 117.997 242.232,117.600 241.723,117.600 241.441 C 117.600 240.166,111.376 239.268,110.100 240.359 M143.591 240.331 C 140.977 241.298,140.953 241.327,140.205 244.378 C 139.483 247.325,140.265 253.200,141.380 253.200 C 141.619 253.200,142.477 253.650,143.286 254.200 C 145.138 255.459,147.636 255.545,149.091 254.400 C 149.650 253.960,150.322 253.600,150.583 253.600 C 151.551 253.600,153.284 250.262,153.492 247.999 C 153.691 245.825,153.392 244.762,151.804 242.000 C 150.647 239.988,146.692 239.184,143.591 240.331 " stroke="none" fill="#0c0444" fill-rule="evenodd"></path><path id="path3" d="M137.842 86.062 C 137.226 86.940,137.483 88.033,138.444 88.627 C 138.685 88.776,138.595 88.459,138.244 87.923 C 136.634 85.467,133.984 85.609,183.400 85.498 L 228.200 85.397 183.323 85.298 L 138.445 85.200 137.842 86.062 M230.500 85.876 C 230.885 85.976,231.515 85.976,231.900 85.876 C 232.285 85.775,231.970 85.693,231.200 85.693 C 230.430 85.693,230.115 85.775,230.500 85.876 M233.200 86.286 C 233.530 86.408,234.160 86.674,234.600 86.876 C 235.387 87.238,235.388 87.234,234.624 86.622 C 234.196 86.280,233.566 86.014,233.224 86.032 C 232.685 86.059,232.682 86.093,233.200 86.286 M239.910 88.801 C 241.608 89.837,242.164 89.836,240.600 88.800 C 239.940 88.363,239.220 88.005,239.000 88.004 C 238.780 88.004,239.189 88.362,239.910 88.801 M244.109 90.800 C 244.669 91.240,245.257 91.600,245.417 91.600 C 245.577 91.600,245.250 91.240,244.691 90.800 C 244.131 90.360,243.543 90.000,243.383 90.000 C 243.223 90.000,243.550 90.360,244.109 90.800 M143.200 94.125 C 143.200 94.194,143.785 94.779,144.500 95.425 L 145.800 96.600 144.625 95.300 C 143.530 94.088,143.200 93.816,143.200 94.125 M146.825 98.231 C 147.581 99.128,148.281 99.797,148.380 99.717 C 148.479 99.638,147.860 98.904,147.005 98.087 L 145.450 96.600 146.825 98.231 M256.368 100.517 C 257.216 101.443,258.488 102.830,259.194 103.600 C 259.900 104.370,259.441 103.703,258.174 102.118 C 256.907 100.533,255.635 99.145,255.347 99.035 C 255.060 98.925,255.519 99.592,256.368 100.517 M152.000 103.186 C 152.000 103.398,152.405 103.784,152.900 104.044 C 153.795 104.514,153.796 104.512,153.038 103.658 C 152.191 102.705,152.000 102.618,152.000 103.186 M155.200 105.157 C 155.200 105.664,156.777 106.556,157.101 106.232 C 157.229 106.105,157.136 106.000,156.895 106.000 C 156.654 106.000,156.174 105.717,155.829 105.371 C 155.483 105.026,155.200 104.929,155.200 105.157 M159.200 107.129 C 159.200 107.641,161.437 108.529,162.080 108.272 C 162.377 108.153,162.252 108.050,161.789 108.032 C 161.343 108.014,160.578 107.720,160.089 107.377 C 159.600 107.035,159.200 106.923,159.200 107.129 M166.566 109.285 C 166.846 109.442,180.065 109.622,195.941 109.685 C 211.817 109.748,224.299 109.669,223.678 109.508 C 222.215 109.129,165.894 108.909,166.566 109.285 M263.455 110.200 C 264.380 111.779,264.400 111.803,264.400 111.311 C 264.400 111.079,264.029 110.464,263.576 109.944 L 262.753 109.000 263.455 110.200 M264.425 112.456 C 264.411 112.816,264.715 113.455,265.100 113.875 C 265.485 114.294,265.672 114.440,265.516 114.197 C 265.360 113.955,265.056 113.317,264.841 112.778 C 264.594 112.160,264.441 112.041,264.425 112.456 M233.967 113.345 C 234.500 114.001,236.000 114.993,236.000 114.689 C 236.000 114.613,235.415 114.122,234.700 113.599 C 233.896 113.010,233.616 112.913,233.967 113.345 M238.412 117.069 C 238.419 117.251,239.094 118.128,239.912 119.018 C 241.475 120.717,241.289 120.313,239.476 118.069 C 238.884 117.337,238.405 116.887,238.412 117.069 M267.249 119.609 C 267.854 121.400,268.195 121.748,267.828 120.200 C 267.671 119.540,267.371 118.824,267.161 118.609 C 266.950 118.394,266.990 118.844,267.249 119.609 M121.429 120.529 C 120.813 120.980,120.770 121.200,121.174 121.836 C 121.652 122.587,121.656 122.587,121.417 121.832 C 121.279 121.397,121.396 120.923,121.686 120.738 C 122.487 120.230,188.522 120.315,189.874 120.825 C 190.803 121.176,190.909 121.158,190.480 120.725 C 189.695 119.932,122.507 119.741,121.429 120.529 M202.000 125.714 C 202.000 125.806,203.125 126.733,204.500 127.773 C 205.875 128.814,206.370 129.097,205.600 128.403 C 203.993 126.955,202.000 125.466,202.000 125.714 M268.493 127.200 C 268.493 127.970,268.575 128.285,268.676 127.900 C 268.776 127.515,268.776 126.885,268.676 126.500 C 268.575 126.115,268.493 126.430,268.493 127.200 M244.033 133.000 C 244.033 135.365,244.124 137.209,244.235 137.098 C 244.346 136.988,244.436 135.143,244.436 133.000 C 244.436 130.857,244.346 129.012,244.235 128.902 C 244.124 128.791,244.033 130.635,244.033 133.000 M268.893 130.400 C 268.893 131.170,268.975 131.485,269.076 131.100 C 269.176 130.715,269.176 130.085,269.076 129.700 C 268.975 129.315,268.893 129.630,268.893 130.400 M210.400 134.000 C 211.544 135.320,212.569 136.400,212.679 136.400 C 212.789 136.400,211.944 135.320,210.800 134.000 C 209.656 132.680,208.631 131.600,208.521 131.600 C 208.411 131.600,209.256 132.680,210.400 134.000 M129.200 132.125 C 129.200 132.194,129.785 132.779,130.500 133.425 L 131.800 134.600 130.625 133.300 C 129.530 132.088,129.200 131.816,129.200 132.125 M133.183 136.700 C 133.926 137.635,134.606 138.400,134.694 138.400 C 134.977 138.400,133.263 136.149,132.535 135.564 C 132.148 135.254,132.440 135.765,133.183 136.700 M242.471 141.559 C 241.992 142.411,241.602 143.264,241.605 143.454 C 241.607 143.645,242.062 143.009,242.614 142.043 C 243.167 141.076,243.557 140.223,243.481 140.147 C 243.404 140.071,242.950 140.706,242.471 141.559 M218.000 143.546 C 218.000 143.810,217.595 144.189,217.100 144.388 C 216.491 144.632,216.410 144.757,216.851 144.775 C 217.591 144.803,218.647 143.714,218.257 143.324 C 218.116 143.182,218.000 143.282,218.000 143.546 M267.515 144.610 C 267.392 145.045,267.169 145.760,267.020 146.200 C 266.871 146.640,267.042 146.494,267.400 145.876 C 267.758 145.258,267.981 144.542,267.895 144.286 C 267.810 144.030,267.639 144.176,267.515 144.610 M174.138 145.787 C 174.392 146.330,174.662 146.594,174.738 146.374 C 174.934 145.805,174.495 144.800,174.050 144.800 C 173.841 144.800,173.879 145.235,174.138 145.787 M142.416 147.045 C 142.434 147.436,144.800 150.309,144.800 149.940 C 144.800 149.813,144.260 149.031,143.600 148.200 C 142.940 147.369,142.407 146.850,142.416 147.045 M236.400 149.900 L 234.600 151.697 236.500 150.200 C 237.545 149.377,238.400 148.545,238.400 148.352 C 238.400 147.888,238.466 147.837,236.400 149.900 M178.400 151.325 C 178.400 151.394,178.985 151.979,179.700 152.625 L 181.000 153.800 179.825 152.500 C 178.730 151.288,178.400 151.016,178.400 151.325 M232.400 152.600 C 231.655 153.150,231.162 153.600,231.305 153.600 C 231.447 153.600,232.228 153.150,233.038 152.600 C 233.849 152.050,234.341 151.600,234.134 151.600 C 233.926 151.600,233.145 152.050,232.400 152.600 M147.564 153.133 C 147.780 153.536,148.271 154.121,148.655 154.433 C 149.087 154.784,148.990 154.504,148.401 153.700 C 147.351 152.265,146.957 151.998,147.564 153.133 M263.491 154.710 L 262.782 156.200 263.591 155.256 C 264.036 154.736,264.400 154.061,264.400 153.756 C 264.400 152.934,264.272 153.067,263.491 154.710 M181.600 155.000 C 182.117 155.550,182.602 156.000,182.679 156.000 C 182.756 156.000,182.524 155.550,182.163 155.000 C 181.803 154.450,181.317 154.000,181.084 154.000 C 180.851 154.000,181.083 154.450,181.600 155.000 M227.600 154.600 C 227.050 154.914,226.780 155.172,227.000 155.172 C 227.220 155.172,227.850 154.914,228.400 154.600 C 228.950 154.286,229.220 154.028,229.000 154.028 C 228.780 154.028,228.150 154.286,227.600 154.600 M183.200 156.854 C 183.530 157.154,184.059 157.670,184.375 158.000 C 184.821 158.465,184.814 158.380,184.341 157.622 C 184.006 157.084,183.477 156.568,183.166 156.476 C 182.710 156.341,182.717 156.415,183.200 156.854 M151.200 157.095 C 151.200 157.273,152.055 158.322,153.100 159.427 C 155.031 161.468,154.789 161.022,152.478 158.286 C 151.775 157.453,151.200 156.918,151.200 157.095 M198.997 158.401 C 200.893 160.618,200.920 160.642,200.486 159.800 C 200.259 159.360,199.562 158.551,198.937 158.001 L 197.800 157.003 198.997 158.401 M260.400 159.595 C 260.400 159.812,259.455 161.118,258.300 162.498 C 255.746 165.550,254.720 166.913,255.664 166.000 C 258.147 163.599,261.340 159.200,260.600 159.200 C 260.490 159.200,260.400 159.378,260.400 159.595 M201.600 161.064 C 201.600 161.282,202.095 161.897,202.700 162.430 L 203.800 163.400 202.800 162.200 C 202.250 161.540,201.755 160.925,201.700 160.833 C 201.645 160.742,201.600 160.845,201.600 161.064 M156.400 163.400 C 157.146 164.170,157.847 164.800,157.957 164.800 C 158.067 164.800,157.546 164.170,156.800 163.400 C 156.054 162.630,155.353 162.000,155.243 162.000 C 155.133 162.000,155.654 162.630,156.400 163.400 M188.400 162.922 C 188.400 162.992,188.963 163.579,189.650 164.225 C 190.525 165.048,190.747 165.148,190.391 164.559 C 189.951 163.833,188.400 162.557,188.400 162.922 M206.800 167.058 C 206.800 167.274,207.385 167.979,208.100 168.625 L 209.400 169.800 208.200 168.402 C 207.540 167.633,206.955 166.928,206.900 166.835 C 206.845 166.743,206.800 166.843,206.800 167.058 M161.600 169.064 C 161.600 169.282,162.095 169.897,162.700 170.430 L 163.800 171.400 162.800 170.200 C 162.250 169.540,161.755 168.925,161.700 168.833 C 161.645 168.742,161.600 168.845,161.600 169.064 M250.800 169.870 L 249.800 170.892 250.900 170.200 C 251.505 169.819,252.000 169.349,252.000 169.154 C 252.000 168.670,251.940 168.705,250.800 169.870 M194.400 169.725 C 194.400 169.794,194.985 170.379,195.700 171.025 L 197.000 172.200 195.825 170.900 C 194.730 169.688,194.400 169.416,194.400 169.725 M197.579 173.378 C 198.107 173.940,198.600 174.400,198.673 174.400 C 199.034 174.400,197.739 172.785,197.218 172.586 C 196.888 172.459,197.051 172.816,197.579 173.378 M246.000 173.976 C 246.000 174.623,246.142 175.241,246.316 175.348 C 246.490 175.456,246.561 174.927,246.473 174.172 C 246.276 172.491,246.000 172.377,246.000 173.976 M200.034 176.383 C 200.727 177.245,201.556 178.051,201.877 178.174 C 202.197 178.297,201.906 177.844,201.230 177.168 C 200.553 176.492,200.000 175.792,200.000 175.612 C 200.000 175.432,199.724 175.180,199.387 175.050 C 199.050 174.921,199.342 175.521,200.034 176.383 M167.515 176.200 C 167.748 176.640,168.802 177.810,169.857 178.800 L 171.775 180.600 169.611 178.200 C 168.421 176.880,167.367 175.710,167.269 175.600 C 167.172 175.490,167.282 175.760,167.515 176.200 M247.622 176.600 C 248.744 178.153,252.800 182.817,252.800 182.555 C 252.800 182.298,248.892 177.627,247.651 176.400 C 247.109 175.864,247.105 175.885,247.622 176.600 M173.174 182.700 C 174.137 183.855,175.002 184.800,175.096 184.800 C 175.368 184.800,172.904 181.782,172.126 181.162 C 171.739 180.853,172.210 181.545,173.174 182.700 M204.400 181.325 C 204.400 181.394,204.985 181.979,205.700 182.625 L 207.000 183.800 205.825 182.500 C 204.730 181.288,204.400 181.016,204.400 181.325 M223.568 186.700 C 224.751 188.075,225.800 189.200,225.897 189.200 C 226.162 189.200,222.934 185.406,222.120 184.759 C 221.732 184.452,222.384 185.325,223.568 186.700 M175.600 185.557 C 175.600 185.750,176.050 186.203,176.600 186.563 C 177.150 186.924,177.600 187.157,177.600 187.081 C 177.600 187.006,177.150 186.553,176.600 186.075 C 176.050 185.597,175.600 185.363,175.600 185.557 M255.924 186.200 C 256.161 186.640,257.368 188.080,258.606 189.400 L 260.856 191.800 258.371 188.800 C 255.395 185.206,255.377 185.187,255.924 186.200 M209.200 186.854 C 209.530 187.154,210.059 187.670,210.375 188.000 C 210.821 188.465,210.814 188.380,210.341 187.622 C 210.006 187.084,209.477 186.568,209.166 186.476 C 208.710 186.341,208.717 186.415,209.200 186.854 M179.199 189.599 C 180.119 190.698,181.081 191.726,181.336 191.883 C 181.591 192.039,180.923 191.140,179.851 189.884 C 178.780 188.628,177.818 187.600,177.714 187.600 C 177.610 187.600,178.279 188.499,179.199 189.599 M227.564 191.133 C 227.780 191.536,228.271 192.121,228.655 192.433 C 229.087 192.784,228.990 192.504,228.401 191.700 C 227.351 190.265,226.957 189.998,227.564 191.133 M262.586 194.000 C 263.664 195.210,264.627 196.290,264.727 196.400 C 264.827 196.510,264.718 196.240,264.486 195.800 C 264.253 195.360,263.290 194.280,262.345 193.400 C 260.651 191.823,260.655 191.831,262.586 194.000 M184.022 195.200 C 185.399 196.850,186.813 198.368,187.163 198.574 C 187.782 198.937,186.715 197.699,183.220 194.000 C 182.284 193.010,182.646 193.550,184.022 195.200 M218.485 197.400 C 219.386 198.390,220.194 199.200,220.281 199.200 C 220.369 199.200,219.763 198.390,218.935 197.400 C 218.108 196.410,217.299 195.600,217.139 195.600 C 216.978 195.600,217.584 196.410,218.485 197.400 M265.200 197.317 C 265.530 197.603,266.047 198.098,266.349 198.418 C 266.819 198.916,266.835 198.877,266.460 198.147 C 266.219 197.678,265.702 197.183,265.311 197.046 C 264.692 196.830,264.678 196.865,265.200 197.317 M237.389 202.500 C 238.683 203.985,239.817 205.200,239.908 205.200 C 240.173 205.200,236.983 201.481,235.962 200.600 C 235.453 200.160,236.095 201.015,237.389 202.500 M191.227 203.066 C 191.212 203.323,191.948 204.313,192.862 205.266 C 194.214 206.677,194.358 206.758,193.635 205.700 C 193.146 204.985,192.605 204.400,192.434 204.400 C 192.262 204.400,191.927 203.995,191.688 203.500 C 191.449 203.005,191.242 202.810,191.227 203.066 M225.200 205.317 C 225.530 205.603,226.047 206.098,226.349 206.418 C 226.819 206.916,226.835 206.877,226.460 206.147 C 226.219 205.678,225.702 205.183,225.311 205.046 C 224.692 204.830,224.678 204.865,225.200 205.317 M272.000 204.925 C 272.000 204.994,272.585 205.579,273.300 206.225 L 274.600 207.400 273.425 206.100 C 272.330 204.888,272.000 204.616,272.000 204.925 M241.605 207.027 C 242.182 207.915,245.381 210.366,246.349 210.661 C 246.739 210.781,246.680 210.665,246.200 210.371 C 245.760 210.102,244.433 209.066,243.251 208.068 C 242.070 207.071,241.329 206.603,241.605 207.027 M276.591 210.149 C 278.277 212.206,278.813 213.162,278.722 213.949 L 278.600 215.000 268.519 215.000 C 262.975 215.000,258.577 215.138,258.747 215.307 C 258.916 215.476,263.632 215.566,269.227 215.507 L 279.400 215.400 279.268 214.200 C 279.107 212.747,278.628 211.997,276.204 209.400 C 274.620 207.702,274.678 207.816,276.591 210.149 M200.744 211.613 C 201.264 212.046,201.894 212.388,202.144 212.373 C 202.395 212.358,202.195 212.151,201.700 211.912 C 201.205 211.673,200.800 211.325,200.800 211.139 C 200.800 210.952,200.575 210.806,200.300 210.813 C 200.025 210.821,200.225 211.181,200.744 211.613 M204.420 213.391 C 204.745 213.716,205.638 214.073,206.405 214.184 L 207.800 214.386 206.300 213.953 C 205.475 213.715,204.800 213.358,204.800 213.160 C 204.800 212.962,204.581 212.800,204.314 212.800 C 203.981 212.800,204.014 212.985,204.420 213.391 M232.054 213.451 C 231.944 215.174,231.388 215.259,221.065 215.126 C 215.680 215.057,211.482 215.132,211.737 215.294 C 211.992 215.456,216.543 215.591,221.851 215.594 C 232.246 215.600,232.666 215.517,232.285 213.522 C 232.121 212.663,232.105 212.658,232.054 213.451 M251.600 213.330 C 251.930 213.670,252.740 214.050,253.400 214.176 C 254.060 214.302,254.330 214.289,254.000 214.148 C 253.670 214.006,252.860 213.625,252.200 213.302 C 251.119 212.771,251.060 212.774,251.600 213.330 M50.080 232.080 C 49.540 232.620,49.374 261.445,49.906 262.238 C 50.685 263.401,57.694 263.240,58.264 262.047 C 58.434 261.691,58.672 259.330,58.793 256.800 C 58.993 252.632,59.061 252.310,59.523 253.367 C 59.802 254.009,60.275 254.729,60.572 254.967 C 60.869 255.205,61.325 256.074,61.586 256.897 C 61.847 257.720,62.291 258.530,62.573 258.697 C 62.856 258.864,63.307 259.676,63.575 260.503 C 64.318 262.787,66.440 263.503,71.010 263.014 C 74.130 262.680,75.039 261.736,73.664 260.262 C 73.221 259.788,72.740 258.918,72.594 258.329 C 72.448 257.741,71.984 256.948,71.564 256.567 C 71.144 256.187,70.800 255.648,70.800 255.369 C 70.800 255.090,70.379 254.353,69.863 253.731 C 68.411 251.977,68.266 250.831,69.442 250.384 C 69.980 250.179,70.523 249.746,70.647 249.421 C 70.772 249.096,71.208 248.724,71.616 248.595 C 72.025 248.465,72.481 247.963,72.629 247.480 C 72.778 246.996,73.237 246.278,73.650 245.884 C 74.768 244.818,74.734 239.333,73.600 237.891 C 73.160 237.331,72.800 236.662,72.800 236.404 C 72.800 235.822,70.145 233.200,69.556 233.200 C 69.320 233.200,68.669 232.840,68.109 232.400 C 66.876 231.430,51.011 231.149,50.080 232.080 M78.080 232.080 C 77.482 232.678,77.398 261.460,77.991 262.400 C 78.514 263.228,95.658 263.300,96.478 262.477 C 97.134 261.821,97.073 257.010,96.398 256.198 C 96.046 255.774,94.712 255.596,91.261 255.512 L 86.600 255.400 86.480 253.100 L 86.360 250.800 89.683 250.800 C 95.440 250.800,96.384 250.260,96.394 246.962 C 96.403 243.934,95.856 243.600,90.892 243.600 C 86.304 243.600,86.222 243.546,86.603 240.782 L 86.875 238.800 91.647 238.800 L 96.420 238.800 96.835 237.708 C 97.292 236.506,96.952 232.899,96.306 232.100 C 95.741 231.401,78.778 231.382,78.080 232.080 M101.172 232.342 L 100.200 233.129 100.085 247.102 C 99.948 263.838,99.659 262.823,104.634 263.103 C 110.206 263.418,119.184 262.555,120.192 261.608 C 120.665 261.164,121.351 260.800,121.717 260.800 C 122.083 260.800,123.377 259.806,124.591 258.591 C 125.806 257.377,126.800 256.083,126.800 255.717 C 126.800 255.351,127.205 254.620,127.700 254.094 C 128.550 253.189,128.600 252.805,128.600 247.200 C 128.600 241.595,128.550 241.211,127.700 240.306 C 127.205 239.780,126.800 239.121,126.800 238.842 C 126.800 238.047,122.063 233.702,120.872 233.405 C 120.282 233.258,119.467 232.837,119.059 232.469 C 117.825 231.355,102.526 231.246,101.172 232.342 M139.922 232.375 C 139.380 232.802,138.495 233.261,137.954 233.397 C 135.991 233.890,131.850 238.741,131.416 241.057 C 131.265 241.860,130.896 242.896,130.595 243.358 C 129.650 244.812,129.454 247.993,130.184 250.000 C 130.545 250.990,131.099 252.625,131.416 253.634 C 131.733 254.643,132.354 255.796,132.796 256.196 C 133.238 256.597,133.600 257.170,133.600 257.471 C 133.600 257.771,134.050 258.222,134.600 258.473 C 135.150 258.723,135.600 259.178,135.600 259.484 C 135.600 259.789,136.095 260.256,136.700 260.521 C 137.305 260.786,138.295 261.338,138.901 261.748 C 141.528 263.526,152.261 263.421,154.202 261.598 C 154.669 261.159,155.230 260.800,155.448 260.800 C 156.006 260.800,158.800 258.183,158.800 257.660 C 158.800 257.423,159.139 257.047,159.554 256.825 C 159.969 256.603,160.427 255.948,160.572 255.370 C 160.717 254.793,161.219 253.800,161.689 253.166 C 162.961 251.445,163.015 243.431,161.766 241.734 C 161.307 241.110,160.816 240.136,160.675 239.569 C 160.453 238.675,159.366 237.159,157.971 235.800 C 157.745 235.580,157.177 234.995,156.708 234.500 C 156.239 234.005,155.653 233.600,155.406 233.600 C 155.158 233.600,154.345 233.150,153.600 232.600 C 151.733 231.222,141.600 231.056,139.922 232.375 M164.080 232.080 C 163.448 232.712,163.448 237.688,164.080 238.320 C 164.375 238.615,165.819 238.800,167.828 238.800 L 171.095 238.800 171.343 240.300 C 171.480 241.125,171.593 246.429,171.596 252.086 C 171.601 263.724,171.449 263.209,174.874 263.190 C 180.478 263.159,180.387 263.356,180.394 251.350 C 180.397 245.822,180.513 240.738,180.650 240.050 L 180.900 238.800 184.021 238.800 C 187.951 238.800,188.400 238.431,188.400 235.194 C 188.400 231.522,188.679 231.600,175.591 231.600 C 167.545 231.600,164.430 231.730,164.080 232.080 M200.080 232.080 C 199.105 233.055,199.424 262.278,200.415 262.808 C 201.641 263.464,217.795 263.168,218.481 262.477 C 219.134 261.820,219.071 257.008,218.398 256.198 C 218.046 255.774,216.712 255.596,213.261 255.512 L 208.600 255.400 208.480 253.100 L 208.360 250.800 211.793 250.800 C 216.102 250.800,217.969 250.122,218.072 248.520 C 218.357 244.079,217.864 243.630,212.687 243.613 C 208.247 243.598,208.141 243.520,208.580 240.595 L 208.849 238.800 213.634 238.800 L 218.420 238.800 218.835 237.708 C 219.292 236.506,218.952 232.899,218.306 232.100 C 217.741 231.401,200.778 231.382,200.080 232.080 M222.889 232.223 L 222.000 232.845 222.000 247.161 C 222.000 264.140,221.653 263.000,226.821 263.000 C 231.104 263.000,230.976 263.228,231.127 255.381 L 231.254 248.800 232.184 248.800 C 232.837 248.800,233.186 249.092,233.360 249.783 C 233.496 250.324,234.055 251.250,234.603 251.841 C 235.152 252.433,235.600 253.150,235.600 253.436 C 235.600 253.721,235.924 254.190,236.320 254.477 C 236.716 254.765,237.273 255.572,237.557 256.271 C 237.841 256.970,238.417 257.853,238.837 258.233 C 239.256 258.613,239.600 259.156,239.600 259.439 C 239.600 259.723,239.915 260.193,240.300 260.483 C 240.685 260.774,241.199 261.369,241.442 261.806 C 242.412 263.546,249.763 263.474,250.431 261.719 C 251.026 260.155,250.892 234.006,250.283 232.800 C 249.812 231.865,249.553 231.792,246.333 231.685 C 241.469 231.523,241.600 231.310,241.600 239.396 C 241.600 246.678,241.400 247.948,240.538 246.141 C 239.920 244.848,238.324 242.513,237.411 241.566 C 237.075 241.218,236.800 240.748,236.800 240.521 C 236.800 240.295,236.260 239.431,235.600 238.600 C 234.940 237.769,234.400 236.851,234.400 236.559 C 234.400 236.267,234.040 235.835,233.600 235.600 C 233.160 235.365,232.800 234.894,232.800 234.555 C 232.800 232.030,225.587 230.333,222.889 232.223 M262.900 232.012 C 262.405 232.211,262.000 232.557,262.000 232.779 C 262.000 233.002,261.505 233.306,260.900 233.453 C 259.563 233.780,255.816 237.416,255.391 238.798 C 255.222 239.348,254.795 240.008,254.442 240.265 C 253.368 241.049,253.260 252.544,254.314 253.969 C 254.739 254.545,255.202 255.372,255.341 255.808 C 255.741 257.056,259.546 260.800,260.415 260.800 C 260.847 260.800,261.200 260.989,261.200 261.220 C 261.200 262.809,272.496 263.631,275.700 262.276 C 276.525 261.927,277.200 261.452,277.200 261.220 C 277.200 260.989,277.534 260.800,277.943 260.800 C 278.759 260.800,282.800 256.976,282.800 256.204 C 282.800 255.939,283.146 255.324,283.568 254.837 C 284.560 253.694,285.099 248.575,284.455 246.424 C 283.797 244.230,282.939 244.000,275.410 244.000 L 268.858 244.000 268.029 245.054 C 265.500 248.269,267.406 251.842,271.768 252.062 C 274.577 252.204,276.030 252.685,274.885 253.093 C 274.602 253.194,273.802 253.754,273.107 254.338 C 271.580 255.620,267.874 255.801,266.558 254.657 C 266.141 254.295,265.082 253.364,264.204 252.588 L 262.609 251.177 262.623 247.288 C 262.637 243.484,262.665 243.372,263.894 242.084 C 266.206 239.663,272.315 239.359,273.876 241.587 C 274.845 242.971,281.191 243.172,282.965 241.875 C 284.557 240.711,279.902 233.200,277.587 233.200 C 277.334 233.200,276.669 232.840,276.109 232.400 C 274.995 231.524,264.856 231.226,262.900 232.012 M287.829 232.229 C 287.280 232.777,287.200 234.711,287.200 247.380 C 287.200 264.306,286.831 263.010,291.643 262.981 C 296.747 262.950,296.400 264.104,296.400 247.161 L 296.400 232.845 295.511 232.223 C 294.260 231.346,288.706 231.351,287.829 232.229 M300.080 232.080 C 299.509 232.651,299.390 261.450,299.955 262.341 C 300.430 263.091,306.880 263.164,307.765 262.429 C 308.294 261.990,308.407 260.822,308.440 255.451 C 308.472 250.318,308.977 244.814,309.160 247.609 C 309.182 247.944,309.715 248.844,310.343 249.609 C 310.972 250.374,311.614 251.405,311.770 251.900 C 311.926 252.395,312.213 252.800,312.408 252.800 C 312.603 252.800,313.121 253.610,313.559 254.600 C 313.997 255.590,314.528 256.400,314.738 256.400 C 314.949 256.400,315.310 256.940,315.540 257.600 C 315.770 258.260,316.145 258.800,316.374 258.800 C 316.602 258.800,317.064 259.457,317.399 260.259 C 318.446 262.765,320.642 263.562,325.003 263.017 C 328.600 262.568,328.400 263.498,328.400 247.194 L 328.400 232.845 327.511 232.223 C 326.260 231.346,320.706 231.351,319.829 232.229 C 319.303 232.754,319.197 234.084,319.184 240.329 C 319.169 247.182,319.119 247.709,318.571 246.700 C 318.243 246.095,317.710 245.600,317.387 245.600 C 317.064 245.600,316.800 245.344,316.800 245.031 C 316.800 244.718,316.388 243.953,315.884 243.331 C 315.381 242.709,314.752 241.700,314.488 241.089 C 314.223 240.478,313.735 239.873,313.403 239.746 C 313.072 239.619,312.800 239.277,312.800 238.988 C 312.800 238.698,312.350 237.927,311.800 237.273 C 311.250 236.619,310.800 235.877,310.800 235.624 C 310.800 235.371,310.354 234.718,309.809 234.173 C 309.264 233.628,308.628 232.826,308.395 232.391 C 307.889 231.445,300.973 231.187,300.080 232.080 M332.229 232.229 C 331.251 233.206,331.281 261.637,332.261 262.451 C 332.775 262.878,334.805 263.000,341.418 263.000 C 351.443 263.000,351.600 262.945,351.600 259.413 C 351.600 255.998,350.951 255.600,345.384 255.600 L 340.800 255.600 340.800 253.245 L 340.800 250.891 344.948 250.737 C 350.103 250.546,350.400 250.345,350.400 247.031 C 350.400 243.700,350.247 243.600,345.120 243.600 L 340.800 243.600 340.800 241.200 L 340.800 238.800 345.538 238.800 C 351.201 238.800,351.600 238.564,351.600 235.215 C 351.600 231.650,351.458 231.600,341.367 231.600 C 334.164 231.600,332.761 231.697,332.229 232.229 M151.901 233.299 C 152.286 233.641,153.230 234.189,154.000 234.518 C 158.121 236.279,161.200 241.712,161.200 247.221 C 161.200 262.169,143.046 267.493,133.724 255.279 C 129.302 249.486,132.464 236.941,139.000 234.345 C 139.660 234.083,140.470 233.644,140.800 233.371 C 142.171 232.234,150.641 232.179,151.901 233.299 M274.707 233.313 C 275.088 233.657,275.885 234.059,276.478 234.207 C 278.171 234.629,281.600 238.491,281.600 239.976 L 281.600 241.200 278.449 241.200 C 276.071 241.200,275.170 241.046,274.776 240.571 C 270.896 235.896,262.158 238.834,261.370 245.078 C 260.419 252.617,263.927 256.820,270.757 256.326 C 273.873 256.100,276.400 254.249,276.400 252.190 C 276.400 250.425,276.020 250.236,272.000 250.000 C 268.303 249.783,267.946 249.465,268.574 246.959 L 268.815 246.000 275.108 246.005 C 283.718 246.013,283.200 245.768,283.200 249.823 C 283.200 251.654,283.017 253.266,282.794 253.404 C 282.571 253.542,282.132 254.227,281.819 254.927 C 279.140 260.915,269.122 263.935,262.800 260.661 C 255.810 257.040,252.412 248.614,255.353 242.190 C 255.929 240.933,256.400 239.688,256.400 239.425 C 256.400 237.891,262.027 233.803,265.600 232.742 C 267.393 232.209,273.938 232.620,274.707 233.313 M67.096 233.600 C 67.916 234.040,68.782 234.400,69.019 234.400 C 69.775 234.400,71.721 236.736,72.264 238.295 C 73.653 242.284,72.571 246.234,69.393 248.770 C 66.590 251.007,66.571 250.700,69.864 256.400 C 72.834 261.540,72.775 262.000,69.142 262.000 C 66.366 262.000,65.290 261.357,64.330 259.126 C 63.874 258.067,63.363 257.200,63.194 257.200 C 63.025 257.200,62.766 256.717,62.617 256.127 C 62.469 255.537,61.910 254.533,61.374 253.896 C 60.838 253.260,60.400 252.510,60.400 252.231 C 60.400 251.952,60.069 251.425,59.665 251.059 C 58.138 249.677,57.419 251.406,57.267 256.821 L 57.134 261.561 55.382 261.824 C 54.418 261.968,52.948 261.925,52.115 261.728 L 50.600 261.370 50.480 249.185 C 50.414 242.483,50.472 236.055,50.609 234.900 L 50.858 232.800 58.230 232.800 C 64.839 232.800,65.758 232.883,67.096 233.600 M95.831 234.667 C 96.271 237.602,95.998 237.784,90.957 237.905 C 85.896 238.026,85.195 238.445,85.206 241.344 C 85.216 244.006,85.477 244.174,89.960 244.409 C 94.555 244.649,94.600 244.675,94.600 247.048 C 94.600 249.351,94.178 249.586,90.031 249.594 C 85.798 249.602,85.200 250.025,85.200 253.018 C 85.200 256.418,85.727 256.770,91.000 256.895 L 95.400 257.000 95.764 258.882 C 96.363 261.982,96.315 262.000,87.525 262.000 C 83.066 262.000,79.629 261.830,79.174 261.586 C 78.384 261.163,77.936 237.620,78.650 234.050 L 78.900 232.800 87.225 232.800 L 95.551 232.800 95.831 234.667 M118.950 233.992 C 130.494 238.696,130.720 255.068,119.315 260.452 C 116.221 261.913,103.991 262.754,102.603 261.602 C 101.978 261.084,101.666 235.888,102.257 233.683 L 102.502 232.766 109.551 232.900 C 115.885 233.021,116.838 233.132,118.950 233.992 M186.336 233.819 C 187.659 236.724,186.493 238.000,182.513 238.000 C 178.671 238.000,178.800 237.575,178.800 250.198 L 178.800 261.072 177.781 261.536 C 176.224 262.245,172.938 262.137,172.643 261.367 C 172.509 261.019,172.400 255.821,172.400 249.816 C 172.400 237.266,172.716 238.180,168.279 237.908 C 164.482 237.676,164.233 237.469,164.595 234.837 L 164.875 232.800 175.373 232.800 L 185.872 232.800 186.336 233.819 M217.802 234.812 C 218.217 237.835,217.947 238.000,212.574 238.000 C 207.399 238.000,206.800 238.348,206.800 241.358 C 206.800 243.923,207.543 244.399,211.562 244.406 C 215.799 244.414,216.200 244.638,216.200 247.000 C 216.200 249.344,215.787 249.586,211.789 249.594 C 207.526 249.602,206.800 250.090,206.800 252.946 C 206.800 256.343,207.141 256.567,212.666 256.800 L 217.400 257.000 217.764 258.882 C 218.367 262.003,218.375 262.000,208.994 262.000 C 201.969 262.000,200.853 261.915,200.643 261.367 C 200.327 260.545,200.336 234.880,200.652 233.700 C 200.892 232.803,200.923 232.800,209.209 232.800 L 217.525 232.800 217.802 234.812 M230.149 233.403 C 230.655 233.735,231.665 234.950,232.392 236.103 C 233.904 238.499,236.452 242.390,236.906 242.993 C 237.643 243.974,239.242 246.521,239.806 247.611 C 240.444 248.846,241.697 249.195,242.276 248.300 C 242.454 248.025,242.690 244.470,242.800 240.400 L 243.000 233.000 246.049 232.884 C 249.896 232.738,249.588 231.431,249.595 247.910 L 249.600 261.220 248.574 261.610 C 245.679 262.710,243.040 262.003,241.537 259.724 C 238.283 254.788,237.437 253.600,237.177 253.600 C 237.017 253.600,236.773 253.145,236.633 252.590 C 236.494 252.034,236.038 251.238,235.620 250.820 C 235.202 250.402,234.639 249.642,234.368 249.130 C 231.030 242.825,230.000 243.878,230.000 253.596 C 230.000 262.055,230.019 262.000,227.000 262.000 C 225.878 262.000,224.744 261.784,224.480 261.520 C 223.972 261.012,223.763 235.525,224.252 233.700 C 224.552 232.582,228.585 232.379,230.149 233.403 M294.320 234.128 C 294.656 235.058,294.800 239.302,294.800 248.264 L 294.800 261.072 293.781 261.536 C 292.452 262.142,289.492 262.132,288.880 261.520 C 288.372 261.012,288.150 234.717,288.643 233.433 C 289.184 232.021,293.761 232.582,294.320 234.128 M308.018 234.100 C 308.551 234.815,310.108 237.110,311.479 239.200 C 314.054 243.127,314.515 243.806,317.251 247.721 C 319.928 251.549,320.303 250.728,320.360 240.933 C 320.410 232.392,320.257 232.800,323.404 232.800 C 326.874 232.800,326.800 232.463,326.800 248.195 L 326.800 261.072 325.781 261.536 C 322.640 262.967,320.135 261.984,317.681 258.358 C 316.129 256.065,313.442 251.977,312.618 250.655 C 307.960 243.180,307.200 243.654,307.200 254.038 L 307.200 261.220 306.174 261.610 C 304.829 262.121,302.150 262.108,301.174 261.586 C 300.384 261.163,299.936 237.620,300.650 234.050 L 300.900 232.800 303.975 232.800 C 306.978 232.800,307.072 232.830,308.018 234.100 M349.748 233.700 C 350.734 237.381,350.022 238.000,344.800 238.000 C 339.809 238.000,339.600 238.130,339.600 241.231 C 339.600 244.145,339.798 244.276,344.527 244.474 C 348.798 244.654,349.188 244.865,349.188 247.000 C 349.188 249.170,348.787 249.387,344.515 249.539 C 339.750 249.708,339.600 249.814,339.600 253.020 C 339.600 256.622,339.864 256.800,345.204 256.800 L 349.551 256.800 349.831 258.667 C 350.294 261.758,350.239 261.783,342.757 261.920 C 339.151 261.986,335.435 261.930,334.500 261.796 L 332.800 261.551 332.800 247.175 L 332.800 232.800 341.153 232.800 C 349.478 232.800,349.508 232.803,349.748 233.700 M57.949 238.661 C 57.034 239.763,57.204 245.120,58.176 245.831 C 62.658 249.113,69.159 242.875,65.111 239.177 C 63.545 237.747,58.981 237.419,57.949 238.661 M108.662 238.731 C 107.724 239.768,107.661 255.221,108.592 255.994 C 110.711 257.752,117.492 255.734,119.762 252.669 C 121.238 250.677,121.002 243.412,119.400 241.524 C 116.762 238.415,110.437 236.770,108.662 238.731 M142.994 238.844 C 136.923 242.057,136.216 251.055,141.724 255.000 C 144.138 256.729,148.652 256.772,150.854 255.087 C 159.355 248.584,152.267 233.936,142.994 238.844 M63.200 239.536 C 63.200 239.720,63.650 240.077,64.200 240.327 C 66.962 241.586,64.531 245.166,60.900 245.187 L 58.800 245.200 58.800 242.200 L 58.800 239.200 61.000 239.200 C 62.210 239.200,63.200 239.351,63.200 239.536 M116.100 240.490 C 116.925 240.730,117.600 241.158,117.600 241.441 C 117.600 241.723,117.997 242.232,118.481 242.572 C 119.833 243.519,120.082 250.093,118.826 251.681 C 116.759 254.296,113.265 255.874,110.634 255.380 L 109.200 255.111 109.200 248.120 C 109.200 239.088,109.633 238.610,116.100 240.490 M149.315 240.317 C 151.221 240.997,151.667 241.487,153.036 244.399 C 154.287 247.060,152.543 253.600,150.583 253.600 C 150.322 253.600,149.650 253.960,149.091 254.400 C 147.636 255.545,145.138 255.459,143.286 254.200 C 142.477 253.650,141.619 253.200,141.380 253.200 C 139.585 253.200,139.545 242.482,141.335 241.296 C 143.693 239.735,146.663 239.370,149.315 240.317 " stroke="none" fill="#6c6393" fill-rule="evenodd"></path><path id="path4" d="M138.013 86.375 C 137.578 87.188,137.568 87.171,140.400 90.355 C 140.730 90.727,142.552 92.823,144.448 95.015 C 149.736 101.126,153.723 104.800,155.066 104.800 C 155.360 104.800,155.600 104.965,155.600 105.167 C 155.600 105.369,156.455 105.853,157.500 106.243 C 158.545 106.634,159.760 107.179,160.200 107.456 C 162.258 108.750,165.833 108.928,195.000 109.191 C 225.695 109.467,228.881 109.663,230.790 111.391 C 231.160 111.726,231.654 112.000,231.887 112.000 C 233.818 112.000,241.009 118.961,241.804 121.600 C 241.969 122.150,242.433 123.067,242.835 123.637 C 244.265 125.670,244.931 134.033,243.996 138.229 C 242.855 143.349,238.075 149.921,233.969 152.016 C 233.136 152.441,232.350 152.957,232.223 153.164 C 232.095 153.370,231.408 153.664,230.695 153.817 C 229.983 153.971,228.860 154.389,228.200 154.747 C 227.180 155.301,224.920 155.428,213.114 155.599 C 196.574 155.838,196.895 155.748,200.120 159.274 C 201.264 160.525,203.010 162.487,204.000 163.635 C 204.990 164.782,206.092 166.031,206.450 166.410 C 206.807 166.789,208.067 168.261,209.250 169.680 C 211.943 172.912,216.029 177.623,217.037 178.656 C 217.456 179.087,219.600 181.583,221.800 184.203 C 224.000 186.822,226.340 189.531,227.000 190.222 C 227.660 190.914,229.010 192.418,230.000 193.565 C 230.990 194.712,232.070 195.963,232.400 196.345 C 232.730 196.727,234.080 198.266,235.400 199.765 C 236.720 201.265,238.430 203.268,239.200 204.217 C 245.927 212.503,254.010 215.367,270.000 215.128 L 278.600 215.000 278.722 213.943 C 278.829 213.019,273.883 206.439,271.398 204.200 C 270.969 203.813,266.501 198.709,265.120 197.028 C 264.283 196.009,258.312 189.124,255.209 185.600 C 245.336 174.389,244.821 173.510,247.400 172.281 C 248.170 171.913,248.800 171.430,248.800 171.206 C 248.800 170.983,249.025 170.794,249.300 170.787 C 250.349 170.761,255.047 166.422,258.036 162.719 C 261.546 158.371,261.801 157.983,263.889 153.800 C 267.211 147.145,269.911 135.409,269.014 131.524 C 268.896 131.016,268.621 128.626,268.402 126.213 C 268.042 122.247,266.616 116.516,265.563 114.800 C 265.360 114.470,265.000 113.750,264.763 113.200 C 261.580 105.818,256.536 99.590,249.400 94.228 C 246.650 92.162,245.594 91.512,242.800 90.166 C 242.030 89.794,240.770 89.175,240.000 88.789 C 239.230 88.403,237.996 87.959,237.258 87.803 C 236.520 87.646,235.080 87.132,234.058 86.659 L 232.200 85.800 185.320 85.689 C 138.849 85.579,138.436 85.585,138.013 86.375 M232.400 87.462 C 233.170 87.937,234.736 88.447,235.880 88.597 C 237.024 88.747,238.174 89.128,238.436 89.443 C 238.698 89.759,239.686 90.211,240.631 90.450 C 241.577 90.688,242.660 91.224,243.037 91.641 C 243.415 92.059,244.031 92.400,244.407 92.400 C 244.783 92.400,245.769 92.940,246.600 93.600 C 247.431 94.260,248.259 94.800,248.441 94.800 C 248.819 94.800,249.286 95.214,254.100 99.823 C 256.025 101.666,257.600 103.349,257.600 103.564 C 257.600 103.779,257.915 104.190,258.300 104.477 C 258.685 104.765,259.312 105.675,259.694 106.500 C 260.075 107.325,260.556 108.000,260.763 108.000 C 260.969 108.000,261.341 108.616,261.589 109.368 C 261.838 110.120,262.290 110.943,262.595 111.196 C 262.899 111.448,263.267 112.228,263.412 112.928 C 263.557 113.627,264.088 114.830,264.593 115.600 C 265.101 116.375,265.632 117.980,265.782 119.195 C 265.931 120.403,266.356 122.023,266.726 122.795 C 267.728 124.885,267.731 141.307,266.729 142.800 C 266.360 143.350,265.851 144.960,265.597 146.377 C 265.344 147.794,264.811 149.368,264.414 149.874 C 264.016 150.379,263.572 151.425,263.427 152.197 C 263.282 152.968,263.019 153.600,262.843 153.600 C 262.666 153.600,262.184 154.365,261.772 155.300 C 261.360 156.235,260.816 157.131,260.564 157.291 C 260.311 157.450,259.879 158.125,259.604 158.791 C 259.328 159.456,258.969 160.000,258.805 160.000 C 258.641 160.000,258.055 160.675,257.503 161.500 C 256.266 163.351,252.625 166.992,250.405 168.600 C 249.494 169.260,248.367 170.205,247.902 170.700 C 247.437 171.195,246.838 171.600,246.572 171.600 C 244.514 171.600,243.992 174.649,245.732 176.506 C 245.990 176.781,247.100 178.077,248.200 179.387 C 249.300 180.697,250.965 182.557,251.900 183.521 C 252.835 184.485,253.600 185.427,253.600 185.614 C 253.600 185.801,253.931 186.190,254.337 186.477 C 254.742 186.765,255.288 187.405,255.551 187.900 C 255.813 188.395,256.292 188.800,256.614 188.800 C 256.936 188.800,257.200 188.998,257.200 189.239 C 257.200 189.640,261.689 195.100,264.600 198.241 C 265.260 198.953,266.610 200.465,267.600 201.600 C 268.590 202.736,269.850 204.169,270.400 204.786 C 272.848 207.528,275.050 210.165,275.632 211.051 C 275.980 211.580,276.610 212.267,277.032 212.578 C 278.354 213.550,277.087 213.654,265.491 213.524 C 255.869 213.416,254.389 213.316,253.741 212.730 C 253.334 212.362,252.156 211.848,251.125 211.589 C 250.093 211.330,248.940 210.776,248.563 210.359 C 248.185 209.941,247.658 209.600,247.392 209.600 C 247.126 209.600,246.299 209.063,245.554 208.406 C 244.809 207.750,244.051 207.210,243.869 207.206 C 243.535 207.200,241.626 205.230,239.400 202.596 C 238.740 201.815,237.840 200.763,237.400 200.259 C 236.960 199.754,235.700 198.297,234.600 197.022 C 233.500 195.746,231.745 193.806,230.700 192.711 C 229.655 191.615,228.800 190.561,228.800 190.369 C 228.800 190.176,228.350 189.724,227.800 189.363 C 227.250 189.003,226.795 188.504,226.788 188.254 C 226.782 188.004,225.837 186.779,224.688 185.530 C 222.639 183.303,219.672 179.970,217.507 177.465 C 216.906 176.769,216.096 175.843,215.707 175.407 C 215.318 174.972,213.949 173.352,212.664 171.807 C 211.379 170.263,209.996 168.640,209.592 168.200 C 209.188 167.760,208.398 166.901,207.838 166.291 C 207.277 165.681,206.628 164.826,206.395 164.391 C 206.162 163.956,205.708 163.600,205.386 163.600 C 205.064 163.600,204.800 163.423,204.800 163.207 C 204.800 162.991,204.305 162.256,203.700 161.573 C 202.049 159.711,200.661 158.118,200.084 157.422 C 199.620 156.862,200.752 156.798,211.484 156.782 C 224.218 156.764,228.832 156.442,229.920 155.498 C 230.294 155.173,231.125 154.782,231.766 154.630 C 232.913 154.356,234.359 153.418,236.191 151.758 C 236.702 151.295,237.425 150.799,237.798 150.656 C 238.171 150.513,238.570 150.037,238.685 149.598 C 238.799 149.159,239.138 148.800,239.436 148.800 C 239.735 148.800,240.259 148.260,240.600 147.600 C 240.941 146.940,241.374 146.400,241.562 146.400 C 241.749 146.400,242.138 145.815,242.424 145.100 C 242.711 144.385,243.264 143.382,243.653 142.872 C 244.041 142.361,244.481 141.101,244.629 140.072 C 244.777 139.042,245.162 137.898,245.485 137.528 C 246.301 136.596,246.303 129.754,245.488 128.150 C 245.167 127.518,244.778 126.132,244.623 125.071 C 244.469 124.010,244.014 122.814,243.612 122.412 C 243.210 122.010,242.768 121.168,242.629 120.541 C 242.224 118.711,235.101 111.600,233.674 111.600 C 233.499 111.600,232.778 111.174,232.073 110.654 C 231.367 110.133,229.979 109.596,228.988 109.460 C 227.997 109.325,226.604 108.895,225.893 108.507 C 224.698 107.853,222.256 107.785,193.600 107.600 C 162.891 107.402,162.587 107.392,161.200 106.551 C 160.430 106.085,159.310 105.587,158.710 105.446 C 157.691 105.206,156.517 104.531,153.265 102.311 C 151.875 101.362,146.800 96.494,146.800 96.109 C 146.800 95.809,141.809 89.995,139.675 87.809 L 138.750 86.862 139.675 86.678 C 140.184 86.576,160.940 86.517,185.800 86.546 L 231.000 86.600 232.400 87.462 M121.712 120.718 C 120.658 121.396,121.872 123.375,126.400 128.359 C 126.730 128.722,129.070 131.445,131.600 134.410 C 134.130 137.374,136.485 140.070,136.834 140.400 C 137.182 140.730,138.431 142.170,139.609 143.600 C 140.787 145.030,141.942 146.380,142.176 146.600 C 142.409 146.820,143.494 148.080,144.587 149.400 C 145.679 150.720,146.939 152.172,147.387 152.627 C 148.473 153.732,152.812 158.649,154.246 160.400 C 156.067 162.622,160.404 167.655,161.968 169.361 C 164.513 172.135,165.779 173.582,166.800 174.883 C 167.350 175.584,168.619 177.067,169.619 178.179 C 170.620 179.290,172.510 181.447,173.819 182.971 C 175.129 184.495,176.560 186.122,177.000 186.586 C 177.440 187.051,179.780 189.762,182.200 192.611 C 184.620 195.460,186.870 198.073,187.200 198.418 C 187.530 198.762,188.700 200.078,189.800 201.342 C 194.665 206.932,198.955 210.800,200.289 210.800 C 200.570 210.800,200.800 210.965,200.800 211.167 C 200.800 211.369,201.655 211.854,202.700 212.246 C 203.745 212.638,204.702 213.106,204.827 213.285 C 205.820 214.712,229.870 216.070,231.416 214.787 C 232.266 214.081,232.131 212.818,231.100 211.828 C 230.605 211.352,229.300 209.914,228.200 208.632 C 227.100 207.350,225.954 206.045,225.653 205.732 C 225.352 205.419,224.484 204.406,223.724 203.481 C 222.442 201.921,219.269 198.250,217.400 196.167 C 216.960 195.676,215.700 194.233,214.600 192.959 C 213.500 191.686,212.150 190.151,211.600 189.548 C 211.050 188.945,210.060 187.778,209.400 186.954 C 208.740 186.131,207.930 185.173,207.600 184.826 C 207.270 184.479,205.843 182.846,204.429 181.197 C 203.015 179.549,201.641 178.020,201.376 177.800 C 201.110 177.580,199.091 175.240,196.888 172.600 C 194.685 169.960,192.310 167.170,191.611 166.400 C 190.217 164.866,187.281 161.510,185.400 159.302 C 184.740 158.527,183.930 157.595,183.600 157.231 C 183.270 156.868,181.396 154.687,179.435 152.385 C 177.475 150.083,175.663 148.020,175.409 147.800 C 175.155 147.580,174.660 146.819,174.309 146.110 L 173.671 144.820 195.468 144.710 C 219.954 144.586,219.840 144.601,217.363 141.963 C 215.762 140.258,215.233 139.653,211.619 135.389 C 206.814 129.721,202.479 125.600,201.321 125.600 C 201.103 125.600,200.598 125.240,200.200 124.800 C 199.802 124.360,199.272 124.000,199.023 124.000 C 198.773 124.000,197.856 123.623,196.985 123.162 C 192.131 120.594,193.138 120.659,156.000 120.526 C 137.410 120.459,121.980 120.546,121.712 120.718 M191.084 122.458 C 192.880 122.722,194.598 123.226,195.141 123.648 C 195.658 124.050,196.738 124.501,197.541 124.650 C 198.343 124.800,199.235 125.254,199.523 125.661 C 199.810 126.067,200.278 126.400,200.563 126.400 C 201.353 126.400,207.172 131.820,209.138 134.387 C 209.722 135.150,210.965 136.535,211.900 137.464 C 212.835 138.393,213.600 139.323,213.600 139.531 C 213.600 139.738,214.036 140.194,214.570 140.543 C 215.103 140.893,215.655 141.543,215.797 141.989 C 215.938 142.435,216.357 142.813,216.727 142.828 C 217.272 142.851,217.247 142.922,216.600 143.200 C 216.160 143.389,206.293 143.556,194.674 143.572 C 171.244 143.603,170.084 143.742,172.800 146.200 C 173.240 146.598,173.600 147.134,173.600 147.390 C 173.600 147.646,174.050 148.247,174.600 148.725 C 175.150 149.203,175.600 149.764,175.600 149.970 C 175.600 150.177,175.960 150.460,176.400 150.600 C 176.840 150.740,177.200 151.043,177.200 151.275 C 177.200 151.635,182.541 158.062,184.993 160.652 C 185.437 161.121,186.610 162.440,187.600 163.585 C 188.590 164.729,189.850 166.169,190.400 166.784 C 190.950 167.399,191.940 168.566,192.600 169.377 C 194.392 171.580,197.256 174.813,198.500 176.038 C 199.105 176.634,199.600 177.239,199.600 177.384 C 199.600 177.528,200.410 178.445,201.400 179.421 C 202.390 180.397,203.200 181.325,203.200 181.484 C 203.200 181.642,203.560 182.138,204.000 182.586 C 204.441 183.034,206.036 184.860,207.545 186.644 C 209.054 188.429,210.629 190.240,211.044 190.670 C 211.460 191.099,212.610 192.405,213.600 193.572 C 215.201 195.460,216.436 196.875,218.160 198.800 C 218.456 199.130,219.936 200.842,221.449 202.604 C 224.317 205.945,224.527 206.182,227.425 209.329 C 228.401 210.389,229.200 211.414,229.200 211.606 C 229.200 211.798,229.586 212.225,230.058 212.555 L 230.915 213.156 229.932 213.403 C 227.044 214.128,207.822 213.385,206.215 212.486 C 205.344 211.999,204.247 211.600,203.777 211.600 C 203.308 211.600,202.613 211.256,202.233 210.837 C 201.853 210.417,200.970 209.841,200.271 209.557 C 199.572 209.273,198.765 208.716,198.477 208.320 C 198.190 207.924,197.762 207.600,197.526 207.600 C 197.120 207.600,194.792 205.225,190.521 200.454 C 189.464 199.274,188.195 197.903,187.700 197.408 C 187.205 196.913,186.795 196.349,186.788 196.154 C 186.782 195.959,185.837 194.779,184.688 193.530 C 183.540 192.282,181.700 190.237,180.600 188.986 C 179.500 187.735,178.105 186.164,177.500 185.496 C 176.895 184.828,176.400 184.140,176.400 183.968 C 176.400 183.795,176.040 183.540,175.600 183.400 C 175.160 183.260,174.800 182.901,174.800 182.602 C 174.800 182.303,174.350 181.704,173.800 181.271 C 173.250 180.839,172.796 180.331,172.791 180.142 C 172.786 179.954,171.812 178.720,170.628 177.400 C 169.443 176.080,168.052 174.491,167.537 173.869 C 167.022 173.247,166.366 172.527,166.081 172.269 C 165.795 172.011,165.345 171.558,165.081 171.262 C 164.816 170.966,164.199 170.287,163.709 169.753 C 163.219 169.219,162.628 168.426,162.395 167.991 C 162.162 167.556,161.708 167.200,161.386 167.200 C 161.064 167.200,160.800 166.957,160.800 166.659 C 160.800 166.362,160.305 165.568,159.700 164.896 C 159.095 164.224,157.700 162.630,156.600 161.356 C 153.124 157.327,152.626 156.760,151.500 155.552 C 150.895 154.903,150.400 154.211,150.400 154.013 C 150.400 153.816,150.040 153.540,149.600 153.400 C 149.160 153.260,148.800 152.892,148.800 152.582 C 148.800 152.272,148.350 151.724,147.800 151.363 C 147.250 151.003,146.800 150.506,146.800 150.258 C 146.800 150.011,146.360 149.357,145.822 148.804 C 145.284 148.252,144.339 147.225,143.722 146.522 C 139.738 141.983,138.505 140.604,137.761 139.850 C 137.299 139.382,136.708 138.595,136.447 138.100 C 136.186 137.605,135.708 137.200,135.386 137.200 C 135.064 137.200,134.800 136.999,134.800 136.754 C 134.800 136.247,131.767 132.559,127.839 128.291 C 127.278 127.681,126.628 126.826,126.395 126.391 C 126.162 125.956,125.708 125.600,125.386 125.600 C 125.064 125.600,124.800 125.343,124.800 125.029 C 124.800 124.715,124.350 124.104,123.800 123.671 C 122.615 122.739,122.568 122.519,123.500 122.276 C 125.158 121.842,188.050 122.012,191.084 122.458 " stroke="none" fill="#246cb3" fill-rule="evenodd"></path></g></svg>
