<svg width="1024" height="414" version="1.1" xml:space="preserve" xmlns="http://www.w3.org/2000/svg"><path d="m641.93 101.42c-0.69636 3.7802-1.9565 11.172-5 13.667-2.2038 1.8064-5.4529 2.3326-8 3.5-1.7947 0.82257-3.5817 2.0948-5.6667 2.1666-4.1257 0.14226-10.396-3.9533-14.333-1.8333-2.5836 1.3912-3.889 5.1366-5.3333 7.5-3.518 5.7567-7.4872 11.252-11 17-1.2894 2.11-3.6839 4.3513-3.5 7 0.31722 4.568 4.3178 5.9662 7.8333 7.3333 6.5679 2.5542 13.422 4.4418 20 7 11.182 4.3485 22.598 8.1994 34 12 4.1123 1.3708 9.6506 4.802 14 4.5 4.2945-0.29823 9.0486-2.9633 13-4.5 9.1423-3.5553 18.71-6.5701 28-9.6667 9.3032-3.101 18.972-6.0185 28-9.8333 3.5215-1.488 7.0478-4.5097 5.6667-8.8333-2.5261-7.9078-10.07-16.105-14.667-23-1.546-2.319-3.1082-6.037-6-6.8333-3.425-0.94312-8.4851 1.6215-12 2-3.8578 0.41546-13.175-3.312-15.667-6.3334-2.5626-3.1078-1.3019-9.8097-4.6667-12.333-2.3062-1.7297-8.8727-0.5-11.667-0.5h-33m-44 64-1 8-2 13 2 9 3.1667 10.667 17.833 8.5 16 5.8333 23-8.3333 8-2.5 22 8 12 2.5 31-13.667 4-19-2-22-47 16-19 6.6667-20-6-48-16.667m47 28c-2.8632 13.6-21.352 19.903-30.667 8-4.8382-6.1822-3.4934-13.16-1.3333-20l13 4.6667 19 7.3333m71-12c8.9919 14.856-8.8138 34.213-24 23.667-4.288-2.9778-6.4825-6.8614-8-11.667l32-12m-128 14-6.3333 7 2.6667 11 6.3333 22 2.8333 8.6667 9.5 4.5 28 10.833-1.8333-25-1.3333-7.6667-7.8333-3.5-18-8.6667-7.8333-3.6667-6.1667-15.5m152 0-5 15.667-26 12.167-8.5 5.1667-0.5 11-1 20 24-9.6667 12.667-5.6666 3-8.6667 6.6667-23 2.1667-10-7.5-7m-77 21.333-19 7.5-6.5 3.3334-0.5 13.833 1 13 0.5 7.8333 6.5 3.3334 21 7.5 18-7.5 6.5-3.3334 1.5-24.833 0.5-9.6667-7.5-3.5z" fill="#ff3f03"/><path transform="matrix(1.2316 0 0 1.2316 74.373 -33.474)" d="m92.327 108.98q25.536 0 37.632 9.792 12.288 9.6 12.288 29.184 0 10.944-4.032 18.24t-10.368 11.712q-6.144 4.224-13.056 6.72l37.632 61.44h-20.16l-33.216-56.64h-27.264v56.64h-17.28v-137.09zm-0.96 14.976h-19.584v50.88h20.544q16.704 0 24.384-6.528 7.68-6.72 7.68-19.584 0-13.44-8.064-19.008-8.064-5.76-24.96-5.76zm159.17 122.11h-76.608v-137.09h76.608v15.168h-59.328v42.816h55.872v14.976h-55.872v48.96h59.328zm139.97-69.888q0 34.752-19.008 52.416-18.816 17.472-52.608 17.472h-38.208v-137.09h42.24q20.736 0 35.904 7.68t23.424 22.656q8.256 14.784 8.256 36.864zm-18.24 0.576q0-27.456-13.632-40.128-13.44-12.864-38.208-12.864h-22.464v107.52h18.624q55.68 0 55.68-54.528zm241.73 69.312h-17.28v-121.92h-42.816v-15.168h102.72v15.168h-42.624z" fill="#ff4000" style="white-space:pre" aria-label="RED   T"/><path d="m152.34 299.63q2.8267 0 5.0667 1.0667 2.2933 1.0667 3.8933 3.2533h0.26666l0.64-3.7867h3.7333v29.067q0 6.1333-3.1467 9.2267-3.0933 3.0933-9.6533 3.0933-6.2933 0-10.293-1.8133v-4.32q4.2133 2.24 10.56 2.24 3.68 0 5.76-2.1867 2.1333-2.1333 2.1333-5.8667v-1.12q0-0.64 0.0533-1.8133 0.0533-1.2267 0.10667-1.7067h-0.21334q-2.88 4.32-8.8533 4.32-5.5467 0-8.6933-3.8933-3.0933-3.8933-3.0933-10.88 0-6.8267 3.0933-10.827 3.1467-4.0533 8.64-4.0533zm0.64 3.9467q-3.5733 0-5.5467 2.88-1.9733 2.8267-1.9733 8.1067 0 5.28 1.92 8.1067 1.9733 2.7733 5.7067 2.7733 4.32 0 6.2933-2.2933 1.9733-2.3467 1.9733-7.52v-1.12q0-5.8667-2.0267-8.3733-2.0267-2.56-6.3467-2.56zm32.853-3.8933q5.2267 0 7.7333 2.2933 2.5067 2.2933 2.5067 7.3067v19.467h-3.4133l-0.90667-4.0533h-0.21333q-1.8667 2.3467-3.9467 3.4667-2.0267 1.12-5.6533 1.12-3.8933 0-6.4533-2.0267-2.56-2.08-2.56-6.4533 0-4.2667 3.36-6.56 3.36-2.3467 10.347-2.56l4.8533-0.16v-1.7067q0-3.5733-1.5467-4.96-1.5467-1.3867-4.3733-1.3867-2.24 0-4.2667 0.69333-2.0267 0.64-3.7867 1.4933l-1.44-3.52q1.8667-1.0133 4.4267-1.7067 2.56-0.74666 5.3333-0.74666zm1.3867 15.253q-5.3333 0.21333-7.4133 1.7067-2.0267 1.4933-2.0267 4.2133 0 2.4 1.44 3.52 1.4933 1.12 3.7867 1.12 3.6267 0 6.0267-1.9733 2.4-2.0267 2.4-6.1867v-2.56zm49.067-15.307q4.8533 0 7.2533 2.5067 2.4 2.4533 2.4 8v18.613h-4.64v-18.4q0-6.7733-5.8133-6.7733-4.16 0-5.9733 2.4-1.76 2.4-1.76 6.9867v15.787h-4.64v-18.4q0-6.7733-5.8667-6.7733-4.32 0-5.9733 2.6667-1.6533 2.6667-1.6533 7.68v14.827h-4.6933v-28.587h3.7867l0.69334 3.8933h0.26666q1.3333-2.24 3.5733-3.3067 2.2933-1.12 4.8533-1.12 6.72 0 8.7467 4.8h0.26666q1.44-2.4533 3.8933-3.6267 2.5067-1.1733 5.28-1.1733zm29.547 0q3.68 0 6.2933 1.6 2.6667 1.6 4.0533 4.5333 1.44 2.88 1.44 6.7733v2.8267h-19.573q0.10666 4.8533 2.4533 7.4133 2.4 2.5067 6.6667 2.5067 2.72 0 4.8-0.48 2.1333-0.53333 4.3733-1.4933v4.1067q-2.1867 0.96-4.32 1.3867-2.1333 0.48-5.0667 0.48-4.0533 0-7.2-1.6533-3.0933-1.6533-4.8533-4.9067-1.7067-3.3067-1.7067-8.0533 0-4.6933 1.5467-8.0533 1.6-3.36 4.4267-5.1733 2.88-1.8133 6.6667-1.8133zm-0.0533 3.84q-3.36 0-5.3333 2.1867-1.92 2.1333-2.2933 5.9733h14.56q-0.0533-3.6267-1.7067-5.8667-1.6533-2.2933-5.2267-2.2933zm44-3.84q3.68 0 6.2933 1.6 2.6667 1.6 4.0533 4.5333 1.44 2.88 1.44 6.7733v2.8267h-19.573q0.10667 4.8533 2.4533 7.4133 2.4 2.5067 6.6667 2.5067 2.72 0 4.8-0.48 2.1333-0.53333 4.3733-1.4933v4.1067q-2.1867 0.96-4.32 1.3867-2.1333 0.48-5.0667 0.48-4.0533 0-7.2-1.6533-3.0933-1.6533-4.8533-4.9067-1.7067-3.3067-1.7067-8.0533 0-4.6933 1.5467-8.0533 1.6-3.36 4.4267-5.1733 2.88-1.8133 6.6667-1.8133zm-0.0533 3.84q-3.36 0-5.3333 2.1867-1.92 2.1333-2.2933 5.9733h14.56q-0.0533-3.6267-1.7067-5.8667-1.6533-2.2933-5.2267-2.2933zm32.853-3.84q5.12 0 7.7333 2.5067 2.6133 2.4533 2.6133 8v18.613h-4.64v-18.293q0-6.88-6.4-6.88-4.7467 0-6.56 2.6667-1.8133 2.6667-1.8133 7.68v14.827h-4.6933v-28.587h3.7867l0.69334 3.8933h0.26666q1.3867-2.24 3.84-3.3067 2.4533-1.12 5.1733-1.12zm29.333 0q2.8267 0 5.0667 1.0667 2.2933 1.0667 3.8933 3.2533h0.26666l0.64-3.7867h3.7333v29.067q0 6.1333-3.1467 9.2267-3.0933 3.0933-9.6533 3.0933-6.2933 0-10.293-1.8133v-4.32q4.2133 2.24 10.56 2.24 3.68 0 5.76-2.1867 2.1333-2.1333 2.1333-5.8667v-1.12q0-0.64 0.0533-1.8133 0.0533-1.2267 0.10667-1.7067h-0.21334q-2.88 4.32-8.8533 4.32-5.5467 0-8.6933-3.8933-3.0933-3.8933-3.0933-10.88 0-6.8267 3.0933-10.827 3.1467-4.0533 8.64-4.0533zm0.64 3.9467q-3.5733 0-5.5467 2.88-1.9733 2.8267-1.9733 8.1067 0 5.28 1.92 8.1067 1.9733 2.7733 5.7067 2.7733 4.32 0 6.2933-2.2933 1.9733-2.3467 1.9733-7.52v-1.12q0-5.8667-2.0267-8.3733-2.0267-2.56-6.3467-2.56zm24.427-14.133q1.0667 0 1.8667 0.74667 0.85333 0.69333 0.85333 2.24 0 1.4933-0.85333 2.24-0.8 0.74666-1.8667 0.74666-1.1733 0-1.9733-0.74666-0.8-0.74667-0.8-2.24 0-1.5467 0.8-2.24 0.8-0.74667 1.9733-0.74667zm2.2933 10.72v28.587h-4.6933v-28.587zm22.827-0.53334q5.12 0 7.7333 2.5067 2.6133 2.4533 2.6133 8v18.613h-4.64v-18.293q0-6.88-6.4-6.88-4.7467 0-6.56 2.6667-1.8133 2.6667-1.8133 7.68v14.827h-4.6933v-28.587h3.7867l0.69333 3.8933h0.26667q1.3867-2.24 3.84-3.3067 2.4533-1.12 5.1733-1.12zm30.24 0q3.68 0 6.2933 1.6 2.6667 1.6 4.0533 4.5333 1.44 2.88 1.44 6.7733v2.8267h-19.573q0.10666 4.8533 2.4533 7.4133 2.4 2.5067 6.6667 2.5067 2.72 0 4.8-0.48 2.1333-0.53333 4.3733-1.4933v4.1067q-2.1867 0.96-4.32 1.3867-2.1333 0.48-5.0667 0.48-4.0533 0-7.2-1.6533-3.0933-1.6533-4.8533-4.9067-1.7067-3.3067-1.7067-8.0533 0-4.6933 1.5467-8.0533 1.6-3.36 4.4267-5.1733 2.88-1.8133 6.6667-1.8133zm-0.0533 3.84q-3.36 0-5.3333 2.1867-1.92 2.1333-2.2933 5.9733h14.56q-0.0533-3.6267-1.7067-5.8667-1.6533-2.2933-5.2267-2.2933z" fill="#ff4000" aria-label="game engine"/></svg>
