<svg width="1024" height="414" version="1.1" xml:space="preserve" xmlns="http://www.w3.org/2000/svg"><path transform="matrix(1.2316 0 0 1.2316 83.554 -33.474)" d="m35.879 255.37v-16h16v-112h-16v-16h96v16h16v48h-16v32h16v48h-32v-48h-16v-16h-16v64zm48-80h32v-48h-32zm80 80v-16h16v-112h-16v-16h112v48h-16v-16h-16v-16h-32v48h16v-16h16v48h-16v-16h-16v48h32v-16h16v-16h16v48zm128 0v-16h16v-112h-16v-16h80v16h16v16h16v80h-16v16h-16v16zm48-16h16v-16h16v-80h-16v-16h-16zm224-80v-48h96v48h-16v-16h-16v96h16v16h-64v-16h16v-96h-16v16z" fill="#ff4000" style="white-space:pre" aria-label="RED T"/><path d="m127.94 333.19v-4.4444h8.8889v4.4444h8.8889v-8.8889h-13.333v-4.4444h-4.4444v-13.333h4.4444v-4.4444h13.333v4.4444h-8.8889v13.333h8.8889v-13.333h4.4444v-4.4444h8.8889v4.4444h-4.4444v26.667h-4.4444v4.4444h-17.778v-4.4444zm35.556-8.8889v-8.8889h4.4444v-4.4444h13.333v-4.4444h-13.333v-4.4444h17.778v4.4444h4.4444v17.778h4.4444v4.4444h-8.8889v-4.4444h-4.4444v-8.8889h-8.8889v8.8889h8.8889v4.4444h-13.333v-4.4444zm35.556 4.4444v-26.667h13.333v4.4444h4.4444v-4.4444h8.8889v4.4444h4.4444v22.222h-8.8889v-17.778h-4.4444v13.333h-4.4444v-13.333h-4.4444v17.778zm35.556-4.4444v-17.778h4.4444v-4.4444h22.222v4.4444h4.4444v8.8889h-22.222v8.8889h13.333v-4.4444h8.8889v4.4444h-4.4444v4.4444h-22.222v-4.4444zm8.8889-17.778v4.4444h13.333v-4.4444zm62.222 17.778v-17.778h4.4444v-4.4444h22.222v4.4444h4.4444v8.8889h-22.222v8.8889h13.333v-4.4444h8.8889v4.4444h-4.4444v4.4444h-22.222v-4.4444zm8.8889-17.778v4.4444h13.333v-4.4444zm26.667 0v-4.4444h8.8889v4.4444h4.4444v22.222h-8.8889v-22.222zm13.333 0v-4.4444h13.333v4.4444h4.4444v22.222h-8.8889v-22.222zm22.222 26.667v-4.4444h8.8889v4.4444h8.8889v-8.8889h-13.333v-4.4444h-4.4444v-13.333h4.4444v-4.4444h13.333v4.4444h-8.8889v13.333h8.8889v-13.333h4.4444v-4.4444h8.8889v4.4444h-4.4444v26.667h-4.4444v4.4444h-17.778v-4.4444zm44.444-4.4444v-4.4444h4.4444v-17.778h-4.4444v-4.4444h13.333v22.222h4.4444v4.4444zm4.4444-31.111v-8.8889h8.8889v8.8889zm22.222 8.8889v-4.4444h8.8889v4.4444h4.4444v22.222h-8.8889v-22.222zm13.333 0v-4.4444h13.333v4.4444h4.4444v22.222h-8.8889v-22.222zm22.222 17.778v-17.778h4.4444v-4.4444h22.222v4.4444h4.4444v8.8889h-22.222v8.8889h13.333v-4.4444h8.8889v4.4444h-4.4444v4.4444h-22.222v-4.4444zm8.8889-17.778v4.4444h13.333v-4.4444z" fill="#ff4000" aria-label="game engine"/><path d="m656.47 108.78c-0.60915 0.41436-0.82757 2.2089-1.0399 2.8963-0.79375 2.5665-1.6736 5.1124-2.4253 7.6924-0.24098 0.82664-0.46558 2.4676-1.2542 2.9149-2.9965 1.6997-6.478 2.8366-9.6386 4.2075-1.1013 0.47825-2.7648 1.6265-3.9759 1.5873-1.0788-0.0329-2.2264-0.47001-3.2805-0.6947-2.4448-0.52259-4.8906-1.0637-7.3559-1.4791-0.97628-0.16492-2.9278-0.86273-3.86-0.48032-0.58454 0.23913-1.008 1.2327-1.3434 1.7379-1.0337 1.5605-2.0479 3.1355-3.0806 4.696-3.983 6.0154-7.9845 12.048-11.778 18.185-1.0358 1.676-2.1074 3.3354-3.1688 4.996-0.36712 0.5731-1.205 1.4781-1.1506 2.1976 0.0677 0.89053 0.925 1.9625 1.3854 2.6974 0.62967 1.0039 1.3219 2.6871 2.252 3.4159 1.1629 0.91116 3.3472 1.2544 4.7378 1.7491a4675.5 4699.3 0 0 0 26.543 9.358 3789.8 3809.2 0 0 1 27.834 9.8259c3.0098 1.0771 6.0177 2.1707 9.0459 3.1952 1.126 0.38138 2.4858 1.1936 3.6784 1.2472 0.52608 0.0237 1.1003-0.31644 1.5905-0.48136 1.2327-0.41436 2.4509-0.86993 3.6784-1.2987 4.2794-1.4925 8.5352-3.0613 12.823-4.5301 12.301-4.2116 24.48-8.7766 36.781-12.988 4.1174-1.4101 8.2522-2.8242 12.326-4.3548 1.3823-0.5195 3.5656-0.7947 4.7193-1.7244 0.38968-0.31436 0.61323-0.90085 0.88192-1.3152 0.70553-1.0864 1.4132-2.1697 2.053-3.2973 0.26663-0.46898 0.74656-1.1297 0.65221-1.6986-0.14152-0.85034-0.98243-1.7749-1.4285-2.4974-1.246-2.0172-2.5474-3.9992-3.8272-5.9948-3.4662-5.4102-6.9222-10.833-10.473-16.187-1.0358-1.5605-2.0459-3.1355-3.0816-4.696-0.44506-0.66997-0.8768-1.6203-1.4992-2.1378-0.46558-0.38652-1.6634 0.0102-2.212 0.0979-1.9946 0.32263-3.9892 0.65966-5.9642 1.0977-1.4562 0.32262-2.9217 0.59474-4.3737 0.92973-0.68093 0.1577-1.5874 0.52772-2.2868 0.44218-0.72502-0.0897-1.5177-0.59886-2.1864-0.88644-1.5915-0.68542-3.1934-1.3584-4.7716-2.0717-1.5793-0.71327-3.1667-1.4348-4.7716-2.0883-0.60298-0.24428-1.7228-0.52876-2.0951-1.0926-0.54863-0.82973-0.72093-2.1367-1.0204-3.0829-0.70964-2.2305-1.3865-4.4733-2.1207-6.6946-0.26252-0.79366-0.51582-1.5977-0.75683-2.3985-0.0912-0.30407-0.13741-0.77717-0.41635-0.9761-0.56401-0.40096-2.0735-0.12266-2.736-0.12266h-39.068c-0.63273 0-2.0079-0.26078-2.5432 0.10306m-44.476 63.842c-0.30765 0.91323-0.30252 1.944-0.42558 2.8964-0.25022 1.9305-0.46045 3.8652-0.69734 5.7958-0.33841 2.7634-0.65427 5.5299-0.99371 8.2932-0.17537 1.4368-0.59478 3.0489-0.5076 4.496 0.0667 1.0926 0.49325 2.2305 0.73423 3.2973 0.5107 2.2645 1.0029 4.5383 1.5547 6.7935a234.56 235.76 0 0 1 1.449 6.2946c0.1528 0.71017 0.22561 2.0965 0.73116 2.6345 0.36407 0.38755 1.0625 0.56175 1.5342 0.78439 1.2839 0.60502 2.5946 1.1502 3.8774 1.7553 4.5778 2.1573 9.1987 4.2353 13.817 6.3019 3.3237 1.4884 6.6329 3.019 9.9411 4.5414 1.0378 0.47827 2.8284 1.7667 3.9759 1.6945 0.79477-0.0494 1.7413-0.60092 2.4858-0.88437 1.6551-0.62668 3.3103-1.2554 4.9696-1.8718 5.8392-2.1697 11.653-4.4126 17.496-6.5678 1.528-0.56381 3.0457-1.1576 4.5736-1.7254 0.63171-0.23499 1.4111-0.68027 2.0869-0.71635 0.79988-0.0413 1.8459 0.58443 2.5843 0.86685 1.7854 0.68233 3.577 1.3462 5.3685 2.012 5.4741 2.0336 10.923 4.1476 16.401 6.1679 1.6275 0.59988 3.2488 1.2203 4.8711 1.8347 0.74553 0.28345 1.5936 0.75862 2.3864 0.86273 0.74758 0.0989 1.7167-0.61329 2.3853-0.90397 2.1372-0.9297 4.2353-1.9594 6.3621-2.9118 4.8229-2.1584 9.5935-4.4342 14.414-6.5946 3.2508-1.4565 6.7128-2.7603 9.8304-4.4858 0.62452-0.34631 0.68708-1.6471 0.82757-2.2944a255.12 256.41 0 0 1 1.4562-6.2946 374.67 376.58 0 0 0 1.6459-7.1945c0.24921-1.1276 0.71067-2.3398 0.74862-3.4962 0.0533-1.5924-0.36917-3.3148-0.56403-4.8959-0.34148-2.7964-0.67271-5.5947-1.005-8.3932l-0.69734-5.7947c-0.0574-0.48135 0.0236-1.8027-0.37328-2.1253-0.26151-0.21233-0.7722 0.10925-1.0336 0.20511-0.95576 0.35046-1.9198 0.69058-2.8827 1.0204a966.96 971.89 0 0 0-12.326 4.328c-11.373 4.0673-22.855 7.8542-34.295 11.725-3.7174 1.2575-7.4134 2.582-11.134 3.8302-1.5321 0.51332-3.176 1.376-4.7716 1.6286-0.54147 0.0866-1.1885-0.28241-1.6901-0.46073-1.1568-0.4092-2.3238-0.78541-3.4796-1.1988-4.2517-1.5213-8.5413-2.9643-12.824-4.3991-10.654-3.5694-21.33-7.1419-31.909-10.926-3.702-1.3245-7.4317-2.5726-11.134-3.8971-1.891-0.67616-3.8138-1.5646-5.7654-2.0295m46.821 27.677c-0.27995 2.178-1.046 4.3146-2.1679 6.1946-1.0993 1.8419-2.5698 3.5323-4.2938 4.8074-8.0727 5.9731-20.139 3.7436-25.02-5.3072a17.51 17.6 0 0 1-1.9904-6.2946c-0.4789-4.0075 0.70349-7.3305 2.3576-10.891 3.86 0.89776 7.7169 2.7994 11.431 4.192 6.5519 2.4541 13.161 4.7692 19.684 7.2976m70.569-11.392c0.78963 0.14947 1.3947 2.3315 1.6305 2.9994 1.1865 3.3478 1.4183 7.1708 0.36406 10.591-2.5842 8.3963-11.045 13.661-19.68 11.89-5.1131-1.0483-9.7238-4.5754-11.87-9.392a17.774 17.865 0 0 1-1.1404-3.3973c-0.0728-0.31953-0.30046-0.93177-0.10459-1.2338 0.28817-0.44527 1.3126-0.60504 1.7823-0.78334 1.6838-0.64216 3.3964-1.2111 5.0701-1.8801 5.792-2.3139 11.711-4.4558 17.596-6.5286 1.5321-0.54011 3.0427-1.1451 4.5726-1.6945 0.46354-0.16696 1.2849-0.66378 1.7792-0.57102m-125.84 12.793c-1.8715 1.8811-3.7933 3.7126-5.6658 5.5948-0.59786 0.60091-1.8746 1.4688-2.1187 2.2985-0.20716 0.70706 0.44609 2.0037 0.64093 2.6974l1.9884 6.9946c2.1894 7.7635 4.4024 15.52 6.6042 23.28l1.8172 6.3947c0.2051 0.72563 0.3179 2.0914 0.86141 2.6325 0.70658 0.70605 2.3074 1.0534 3.2283 1.4234 2.4582 0.98949 4.9214 1.979 7.3569 3.0231 5.2711 2.2563 10.622 4.3229 15.905 6.5514 3.6713 1.5492 7.36 3.2716 11.133 4.5538l-1.487-23.48-0.3979-6.4936-0.22049-2.649-2.4673-1.274-6.759-3.1499-18.093-8.4828-5.5664-2.5985-2.5627-1.2287-0.50659-1.2008-0.69633-2.8964-2.013-8.2932-0.98139-3.6972m150.11 0-2.7422 11.291-0.7722 3.1973-0.51275 1.5348-2.533 1.241-5.8658 2.75-18.092 8.4756-6.6606 3.1077-2.3832 1.2162-0.21024 2.5562-0.39789 6.4946-0.99472 15.987-0.48712 7.5933c3.8364-1.3049 7.5968-3.0767 11.332-4.6537 5.2833-2.2284 10.635-4.295 15.905-6.5514 2.4386-1.0441 4.9121-2.0099 7.3569-3.0407 0.83782-0.35251 2.3791-0.64936 3.0088-1.311 0.53121-0.55865 0.6235-1.8997 0.83988-2.6284a260.61 261.94 0 0 0 1.931-6.7925c2.054-7.6212 4.3184-15.185 6.4607-22.781l1.9884-6.9946c0.20305-0.71739 0.88398-2.0666 0.70246-2.7974-0.19997-0.8081-1.5321-1.6286-2.1085-2.1996-1.8562-1.8388-3.6364-4.1858-5.7654-5.6938m-75.053 21.666-1.9884 0.7318-4.5726 1.8192-14.712 5.836-4.9706 1.978-1.8869 0.88128-0.0185 1.2575 0.11281 2.2975 0.49839 10.291 0.69324 14.288 0.20304 4.3961 0.15895 2.5769 1.5311 0.81942 4.5727 1.8594 14.713 6.0349 3.9759 1.6182 1.7895 0.62359 2.0879-0.80087 4.1737-1.6986 13.719-5.6174 4.6722-1.9181 1.7578-0.84107 0.15996-1.9563 0.27382-5.8957 0.9896-19.483 0.22766-5.2959 0.0637-2.548-1.7823-0.82871-4.8711-1.9377-15.209-6.0555-4.3737-1.7389z" fill="#fe3f02" stroke-width="1.0281"/></svg>
