<?xml version="1.0" encoding="UTF-8" standalone="no"?>
<!DOCTYPE svg PUBLIC "-//W3C//DTD SVG 1.1//EN" "http://www.w3.org/Graphics/SVG/1.1/DTD/svg11.dtd">
<svg width="100%" height="100%" viewBox="0 0 1024 1024" version="1.1" xmlns="http://www.w3.org/2000/svg" xmlns:xlink="http://www.w3.org/1999/xlink" xml:space="preserve" xmlns:serif="http://www.serif.com/" style="fill-rule:evenodd;clip-rule:evenodd;stroke-linecap:round;stroke-linejoin:round;">
    <path d="M812.681,293.783C789.106,261.241 670.751,253.919 615.176,258.8C617.346,190.752 646.633,141.145 577.21,81.775M161.89,49.15L464,49.15C541.128,47.13 590.554,86.986 642.444,134.032L766.109,243.862C829.928,300.802 855.239,354.486 862.109,432.036L862.109,974.921L161.89,974.921L161.89,49.15Z" style="fill:rgb(239,241,245);fill-rule:nonzero;stroke:rgb(159,159,161);stroke-width:19.6px;"/>
    <g transform="matrix(1,0,0,1,234.416,878.644)">
        <text x="0px" y="0px" style="font-family:'Helvetica-Bold', 'Helvetica';font-weight:700;font-size:112px;fill:rgb(51,63,103);">PROJECT</text>
    </g>
    <g id="SVG" transform="matrix(1.94828,0,0,1.94828,264.983,274.621)">
        <path d="M29,133L19,143L19,147L33,205L83,226L82,177L33,155L29,133Z" style="fill:rgb(187,23,0);"/>
        <g transform="matrix(-1,0,0,1,255,0)">
            <path d="M29,133L19,143L19,147L33,205L83,226L82,177L33,155L29,133Z" style="fill:rgb(187,23,0);"/>
        </g>
        <path d="M89,176L91,230L126,244L129,244L163,230L165,177L130,162L125,162L89,176Z" style="fill:rgb(187,23,0);"/>
        <path d="M105.983,126.03C105.994,126.352 106,126.675 106,127C106,141.902 93.902,154 79,154C64.098,154 52,141.902 52,127C52,119.888 54.756,113.414 59.257,108.59L105.983,126.03Z" style="fill:white;"/>
        <g transform="matrix(-1,0,0,1,253,0)">
            <path d="M105.983,126.03C105.994,126.352 106,126.675 106,127C106,141.902 93.902,154 79,154C64.098,154 52,141.902 52,127C52,119.888 54.756,113.414 59.257,108.59L105.983,126.03Z" style="fill:white;"/>
        </g>
        <path d="M39,94L126,125L129,125L216,94L218,127L213,149L169,169L129,153L125,153L86,169L42,148L36,124L39,94ZM101.713,128.097L60.334,112.715C58.22,116.143 57,120.18 57,124.5C57,136.918 67.082,147 79.5,147C90.694,147 99.989,138.808 101.713,128.097ZM193.642,112.676L152.279,128.052C153.984,138.785 163.29,147 174.5,147C186.918,147 197,136.918 197,124.5C197,120.164 195.771,116.113 193.642,112.676Z" style="fill:rgb(187,23,0);"/>
        <path d="M98,12L92,30L75,37L55,33L28,75L33,84L126,116L128,116L222,83L227,75L199,33L180,37L162,29L157,12L98,12Z" style="fill:rgb(187,23,0);"/>
    </g>
</svg>
