<?xml version="1.0" encoding="UTF-8" standalone="no"?>
<!DOCTYPE svg PUBLIC "-//W3C//DTD SVG 1.1//EN" "http://www.w3.org/Graphics/SVG/1.1/DTD/svg11.dtd">
<svg width="100%" height="100%" viewBox="0 0 1366 1366" version="1.1" xmlns="http://www.w3.org/2000/svg" xmlns:xlink="http://www.w3.org/1999/xlink" xml:space="preserve" xmlns:serif="http://www.serif.com/" style="fill-rule:evenodd;clip-rule:evenodd;">
    <g transform="matrix(1.33333,0,0,1.33333,0,0)">
        <g id="Redot.svg" transform="matrix(3.77344,0,0,3.77344,512,512)">
            <g transform="matrix(1,0,0,1,-128,-128)">
                <g id="SVG">
                    <path d="M29,133L19,143L19,147L33,205L83,226L82,177L33,155L29,133Z" style="fill:rgb(187,23,0);"/>
                    <g transform="matrix(-1,0,0,1,255,0)">
                        <path d="M29,133L19,143L19,147L33,205L83,226L82,177L33,155L29,133Z" style="fill:rgb(187,23,0);"/>
                    </g>
                    <path d="M89,176L91,230L126,244L129,244L163,230L165,177L130,162L125,162L89,176Z" style="fill:rgb(187,23,0);"/>
                    <path d="M105.983,126.03C105.994,126.352 106,126.675 106,127C106,141.902 93.902,154 79,154C64.098,154 52,141.902 52,127C52,119.888 54.756,113.414 59.257,108.59L105.983,126.03Z" style="fill:white;"/>
                    <g transform="matrix(-1,0,0,1,253,0)">
                        <path d="M105.983,126.03C105.994,126.352 106,126.675 106,127C106,141.902 93.902,154 79,154C64.098,154 52,141.902 52,127C52,119.888 54.756,113.414 59.257,108.59L105.983,126.03Z" style="fill:white;"/>
                    </g>
                    <path d="M39,94L126,125L129,125L216,94L218,127L213,149L169,169L129,153L125,153L86,169L42,148L36,124L39,94ZM101.713,128.097L60.334,112.715C58.22,116.143 57,120.18 57,124.5C57,136.918 67.082,147 79.5,147C90.694,147 99.989,138.808 101.713,128.097ZM193.642,112.676L152.279,128.052C153.984,138.785 163.29,147 174.5,147C186.918,147 197,136.918 197,124.5C197,120.164 195.771,116.113 193.642,112.676Z" style="fill:rgb(187,23,0);"/>
                    <path d="M98,12L92,30L75,37L55,33L28,75L33,84L126,116L128,116L222,83L227,75L199,33L180,37L162,29L157,12L98,12Z" style="fill:rgb(187,23,0);"/>
                </g>
            </g>
        </g>
        <path d="M980,670L980,960C980,971.038 971.038,980 960,980L570,980C558.962,980 550,971.038 550,960L550,670C550,658.962 558.962,650 570,650L960,650C971.038,650 980,658.962 980,670Z" style="fill:rgb(65,64,66);stroke:white;stroke-width:20px;"/>
        <path d="M590,750C586.121,753.879 586.121,760.263 590,764.142L660,834.142L590,904.142C586.121,908.021 586.121,914.405 590,918.284L610,938.284C613.879,942.163 620.263,942.163 624.142,938.284L721.213,841.213C725.092,837.334 725.092,830.95 721.213,827.071L624.142,730C620.263,726.121 613.879,726.121 610,730L590,750ZM770,895C764.514,895 760,899.514 760,905L760,930C760,935.486 764.514,940 770,940L930,940C935.486,940 940,935.486 940,930L940,905C940,899.514 935.486,895 930,895L770,895Z" style="fill:white;fill-rule:nonzero;"/>
    </g>
</svg>
