<?xml version="1.0" encoding="UTF-8" standalone="no"?>
<!DOCTYPE svg PUBLIC "-//W3C//DTD SVG 1.1//EN" "http://www.w3.org/Graphics/SVG/1.1/DTD/svg11.dtd">
<svg width="100%" height="100%" viewBox="0 0 1366 552" version="1.1" xmlns="http://www.w3.org/2000/svg" xmlns:xlink="http://www.w3.org/1999/xlink" xml:space="preserve" xmlns:serif="http://www.serif.com/" style="fill-rule:evenodd;clip-rule:evenodd;stroke-linejoin:round;stroke-miterlimit:2;">
    <g transform="matrix(1.33333,0,0,1.33333,0,0)">
        <g transform="matrix(1.25,0,0,-1.25,-100.533,637.332)">
            <g>
                <g transform="matrix(1.13105,0,0,1.13105,470.77,251.468)">
                    <path d="M0,0C-0.666,-1.365 -1.889,-2.618 -3.679,-3.75C-5.467,-4.891 -7.738,-5.457 -10.496,-5.457C-14.135,-5.457 -17.062,-4.31 -19.285,-1.991C-21.5,0.309 -22.609,3.626 -22.609,7.953L-22.609,18.743C-22.609,22.977 -21.564,26.224 -19.467,28.491C-17.374,30.739 -14.571,31.879 -11.07,31.879C-7.648,31.879 -4.995,30.979 -3.118,29.199C-1.246,27.412 -0.262,24.916 -0.177,21.729L-0.224,21.587L-3.018,21.587C-3.118,24.03 -3.827,25.915 -5.162,27.246C-6.489,28.566 -8.463,29.234 -11.07,29.234C-13.708,29.234 -15.797,28.341 -17.327,26.55C-18.852,24.764 -19.613,22.174 -19.613,18.771L-19.613,7.919C-19.613,4.39 -18.79,1.7 -17.148,-0.153C-15.505,-1.991 -13.291,-2.913 -10.496,-2.913C-8.455,-2.913 -6.815,-2.551 -5.587,-1.811C-4.355,-1.082 -3.501,-0.191 -3.018,0.866L-3.018,10.318L-10.548,10.318L-10.548,12.945L0,12.945L0,0Z" style="fill:rgb(224,224,224);fill-rule:nonzero;"/>
                </g>
                <g transform="matrix(1.13105,0,0,1.13105,486.416,248.347)">
                    <path d="M0,0C1.657,0 3.132,0.469 4.42,1.425C5.711,2.385 6.615,3.598 7.152,5.075L7.152,10.908L2.361,10.908C0.323,10.908 -1.309,10.331 -2.53,9.177C-3.755,8.03 -4.361,6.597 -4.361,4.894C-4.361,3.455 -3.982,2.273 -3.215,1.362C-2.449,0.448 -1.378,0 0,0M7.599,-2.176C7.45,-1.242 7.333,-0.483 7.26,0.111C7.188,0.716 7.152,1.317 7.152,1.929C6.334,0.591 5.278,-0.518 3.973,-1.388C2.671,-2.263 1.222,-2.698 -0.373,-2.698C-2.605,-2.698 -4.321,-2.006 -5.536,-0.622C-6.743,0.768 -7.354,2.641 -7.354,5.006C-7.354,7.505 -6.476,9.51 -4.716,10.998C-2.957,12.486 -0.566,13.23 2.441,13.23L7.152,13.23L7.152,16.543C7.152,18.448 6.666,19.949 5.711,21.034C4.736,22.105 3.396,22.646 1.667,22.646C0.059,22.646 -1.268,22.135 -2.309,21.1C-3.347,20.07 -3.862,18.813 -3.862,17.314L-6.66,17.339L-6.709,17.485C-6.788,19.518 -6.019,21.315 -4.397,22.908C-2.781,24.496 -0.707,25.285 1.817,25.285C4.31,25.285 6.318,24.527 7.851,23.015C9.375,21.489 10.14,19.313 10.14,16.483L10.14,3.261C10.14,2.298 10.185,1.362 10.269,0.469C10.355,-0.435 10.495,-1.307 10.714,-2.176L7.599,-2.176Z" style="fill:rgb(224,224,224);fill-rule:nonzero;"/>
                </g>
                <g transform="matrix(1.13105,0,0,1.13105,508.512,276.379)">
                    <path d="M0,0L0.256,-4.185C0.964,-2.687 1.914,-1.533 3.09,-0.713C4.271,0.097 5.661,0.501 7.257,0.501C8.885,0.501 10.258,0.028 11.365,-0.931C12.474,-1.887 13.291,-3.333 13.81,-5.277C14.475,-3.483 15.415,-2.065 16.637,-1.039C17.858,-0.011 19.34,0.501 21.056,0.501C23.421,0.501 25.255,-0.455 26.556,-2.37C27.861,-4.289 28.512,-7.233 28.512,-11.211L28.512,-26.96L25.501,-26.96L25.501,-11.158C25.501,-7.852 25.043,-5.523 24.154,-4.185C23.259,-2.844 21.975,-2.169 20.316,-2.169C18.57,-2.169 17.206,-2.906 16.226,-4.404C15.251,-5.903 14.65,-7.776 14.431,-10.038L14.431,-26.96L11.435,-26.96L11.435,-11.175C11.435,-7.947 10.982,-5.635 10.057,-4.255C9.135,-2.875 7.853,-2.19 6.207,-2.19C4.634,-2.19 3.361,-2.67 2.407,-3.621C1.447,-4.578 0.765,-5.888 0.351,-7.55L0.351,-26.96L-2.642,-26.96L-2.642,0L0,0Z" style="fill:rgb(224,224,224);fill-rule:nonzero;"/>
                </g>
                <g transform="matrix(1.13105,0,0,1.13105,557.678,273.962)">
                    <path d="M0,0C-1.875,0 -3.415,-0.855 -4.623,-2.562C-5.831,-4.275 -6.455,-6.386 -6.506,-8.902L5.932,-8.902L5.932,-7.748C5.932,-5.523 5.41,-3.67 4.365,-2.201C3.313,-0.73 1.861,0 0,0M0.423,-25.344C-2.483,-25.344 -4.861,-24.25 -6.707,-22.066C-8.548,-19.887 -9.471,-17.099 -9.471,-13.702L-9.471,-9.226C-9.471,-5.823 -8.546,-2.986 -6.695,-0.73C-4.841,1.516 -2.612,2.639 0,2.639C2.825,2.639 5.012,1.637 6.575,-0.372C8.141,-2.385 8.923,-5.089 8.923,-8.482L8.923,-11.44L-6.506,-11.44L-6.506,-13.682C-6.506,-16.292 -5.881,-18.465 -4.637,-20.199C-3.391,-21.938 -1.698,-22.8 0.423,-22.8C1.898,-22.8 3.181,-22.54 4.251,-22.028C5.321,-21.504 6.238,-20.77 7.001,-19.807L8.226,-21.927C7.412,-22.96 6.357,-23.794 5.07,-24.413C3.786,-25.028 2.234,-25.344 0.423,-25.344" style="fill:rgb(224,224,224);fill-rule:nonzero;"/>
                </g>
                <g transform="matrix(1.13105,0,0,1.13105,595.285,273.962)">
                    <path d="M0,0C-1.881,0 -3.424,-0.855 -4.63,-2.562C-5.831,-4.275 -6.457,-6.386 -6.511,-8.902L5.93,-8.902L5.93,-7.748C5.93,-5.523 5.409,-3.67 4.357,-2.201C3.311,-0.73 1.86,0 0,0M0.42,-25.344C-2.487,-25.344 -4.861,-24.25 -6.704,-22.066C-8.553,-19.887 -9.477,-17.099 -9.477,-13.702L-9.477,-9.226C-9.477,-5.823 -8.548,-2.986 -6.702,-0.73C-4.842,1.516 -2.612,2.639 0,2.639C2.819,2.639 5.017,1.637 6.575,-0.372C8.135,-2.385 8.918,-5.089 8.918,-8.482L8.918,-11.44L-6.511,-11.44L-6.511,-13.682C-6.511,-16.292 -5.885,-18.465 -4.634,-20.199C-3.394,-21.938 -1.709,-22.8 0.42,-22.8C1.9,-22.8 3.178,-22.54 4.244,-22.028C5.318,-21.504 6.235,-20.77 7.006,-19.807L8.223,-21.927C7.408,-22.96 6.356,-23.794 5.067,-24.413C3.782,-25.028 2.231,-25.344 0.42,-25.344" style="fill:rgb(224,224,224);fill-rule:nonzero;"/>
                </g>
                <g transform="matrix(1.13105,0,0,1.13105,614.311,276.379)">
                    <path d="M0,0L0.245,-4.457C0.964,-2.875 1.914,-1.647 3.106,-0.793C4.288,0.066 5.68,0.501 7.281,0.501C9.69,0.501 11.535,-0.389 12.816,-2.179C14.111,-3.966 14.752,-6.743 14.752,-10.512L14.752,-26.96L11.739,-26.96L11.739,-10.54C11.739,-7.459 11.287,-5.308 10.39,-4.06C9.499,-2.812 8.188,-2.19 6.481,-2.19C4.95,-2.19 3.667,-2.687 2.638,-3.698C1.604,-4.7 0.834,-6.034 0.321,-7.716L0.321,-26.96L-2.671,-26.96L-2.671,0L0,0Z" style="fill:rgb(224,224,224);fill-rule:nonzero;"/>
                </g>
                <g transform="matrix(1.13105,0,0,1.13105,640.927,258.463)">
                    <path d="M0,0C0,-2.736 0.518,-4.912 1.57,-6.531C2.609,-8.165 4.191,-8.972 6.302,-8.972C7.748,-8.972 8.966,-8.587 9.966,-7.797C10.962,-7.008 11.749,-5.909 12.332,-4.515L12.332,8.839C11.772,10.275 11.003,11.436 10.031,12.33C9.06,13.209 7.831,13.65 6.353,13.65C4.246,13.65 2.654,12.733 1.596,10.891C0.53,9.045 0,6.639 0,3.684L0,0ZM-3.022,3.684C-3.022,7.505 -2.251,10.574 -0.7,12.886C0.838,15.187 2.978,16.341 5.705,16.341C7.218,16.341 8.546,15.972 9.681,15.232C10.818,14.506 11.758,13.442 12.512,12.09L12.804,15.84L15.344,15.84L15.344,-11.145C15.344,-14.599 14.543,-17.277 12.933,-19.171C11.322,-21.058 9.033,-22.014 6.077,-22.014C5.014,-22.014 3.872,-21.847 2.651,-21.524C1.427,-21.201 0.345,-20.777 -0.605,-20.244L0.223,-17.617C1.033,-18.142 1.938,-18.548 2.941,-18.834C3.935,-19.13 4.962,-19.271 6.028,-19.271C8.171,-19.271 9.759,-18.583 10.785,-17.211C11.815,-15.82 12.332,-13.808 12.332,-11.145L12.332,-7.884C11.567,-9.098 10.628,-10.029 9.516,-10.672C8.407,-11.318 7.113,-11.642 5.652,-11.642C2.944,-11.642 0.82,-10.581 -0.714,-8.461C-2.251,-6.345 -3.022,-3.521 -3.022,0L-3.022,3.684Z" style="fill:rgb(224,224,224);fill-rule:nonzero;"/>
                </g>
                <path d="M669.678,245.885L666.264,245.885L666.264,276.379L669.678,276.379L669.678,245.885ZM669.678,285.06L666.264,285.06L666.264,289.864L669.678,289.864L669.678,285.06Z" style="fill:rgb(224,224,224);fill-rule:nonzero;"/>
                <g transform="matrix(1.13105,0,0,1.13105,680.698,276.379)">
                    <path d="M0,0L0.245,-4.457C0.966,-2.875 1.911,-1.647 3.102,-0.793C4.291,0.066 5.685,0.501 7.279,0.501C9.687,0.501 11.54,-0.389 12.825,-2.179C14.116,-3.966 14.752,-6.743 14.752,-10.512L14.752,-26.96L11.739,-26.96L11.739,-10.54C11.739,-7.459 11.289,-5.308 10.394,-4.06C9.494,-2.812 8.193,-2.19 6.481,-2.19C4.951,-2.19 3.67,-2.687 2.642,-3.698C1.611,-4.7 0.837,-6.034 0.326,-7.716L0.326,-26.96L-2.67,-26.96L-2.67,0L0,0Z" style="fill:rgb(224,224,224);fill-rule:nonzero;"/>
                </g>
                <g transform="matrix(1.13105,0,0,1.13105,714.356,273.962)">
                    <path d="M0,0C-1.881,0 -3.422,-0.855 -4.623,-2.562C-5.827,-4.275 -6.455,-6.386 -6.509,-8.902L5.931,-8.902L5.931,-7.748C5.931,-5.523 5.412,-3.67 4.363,-2.201C3.316,-0.73 1.863,0 0,0M0.428,-25.344C-2.487,-25.344 -4.861,-24.25 -6.699,-22.066C-8.544,-19.887 -9.467,-17.099 -9.467,-13.702L-9.467,-9.226C-9.467,-5.823 -8.544,-2.986 -6.693,-0.73C-4.838,1.516 -2.607,2.639 0,2.639C2.822,2.639 5.02,1.637 6.583,-0.372C8.143,-2.385 8.925,-5.089 8.925,-8.482L8.925,-11.44L-6.509,-11.44L-6.509,-13.682C-6.509,-16.292 -5.879,-18.465 -4.635,-20.199C-3.391,-21.938 -1.703,-22.8 0.428,-22.8C1.902,-22.8 3.179,-22.54 4.244,-22.028C5.324,-21.504 6.238,-20.77 7.008,-19.807L8.231,-21.927C7.411,-22.96 6.359,-23.794 5.072,-24.413C3.789,-25.028 2.237,-25.344 0.428,-25.344" style="fill:rgb(224,224,224);fill-rule:nonzero;"/>
                </g>
            </g>
            <g id="Redot.svg" transform="matrix(1.16383,0,0,-1.16383,253.396,336.096)">
                <g transform="matrix(1,0,0,1,-128,-128)">
                    <g id="SVG">
                        <path d="M29,133L19,143L19,147L33,205L83,226L82,177L33,155L29,133Z" style="fill:rgb(187,23,0);"/>
                        <g transform="matrix(-1,0,0,1,255,0)">
                            <path d="M29,133L19,143L19,147L33,205L83,226L82,177L33,155L29,133Z" style="fill:rgb(187,23,0);"/>
                        </g>
                        <path d="M89,176L91,230L126,244L129,244L163,230L165,177L130,162L125,162L89,176Z" style="fill:rgb(187,23,0);"/>
                        <path d="M105.983,126.03C105.994,126.352 106,126.675 106,127C106,141.902 93.902,154 79,154C64.098,154 52,141.902 52,127C52,119.888 54.756,113.414 59.257,108.59L105.983,126.03Z" style="fill:white;"/>
                        <g transform="matrix(-1,0,0,1,253,0)">
                            <path d="M105.983,126.03C105.994,126.352 106,126.675 106,127C106,141.902 93.902,154 79,154C64.098,154 52,141.902 52,127C52,119.888 54.756,113.414 59.257,108.59L105.983,126.03Z" style="fill:white;"/>
                        </g>
                        <path d="M39,94L126,125L129,125L216,94L218,127L213,149L169,169L129,153L125,153L86,169L42,148L36,124L39,94ZM101.713,128.097L60.334,112.715C58.22,116.143 57,120.18 57,124.5C57,136.918 67.082,147 79.5,147C90.694,147 99.989,138.808 101.713,128.097ZM193.642,112.676L152.279,128.052C153.984,138.785 163.29,147 174.5,147C186.918,147 197,136.918 197,124.5C197,120.164 195.771,116.113 193.642,112.676Z" style="fill:rgb(187,23,0);"/>
                        <path d="M98,12L92,30L75,37L55,33L28,75L33,84L126,116L128,116L222,83L227,75L199,33L180,37L162,29L157,12L98,12Z" style="fill:rgb(187,23,0);"/>
                    </g>
                </g>
            </g>
            <g transform="matrix(0.8,0,0,-0.8,80.4267,501.864)">
                <g transform="matrix(144,0,0,144,892.568,235.26)">
                </g>
                <text x="443px" y="235.26px" style="font-family:'Futura-Bold', 'Futura', sans-serif;font-weight:700;font-size:144px;fill:rgb(224,224,224);">R<tspan x="543.512px 636.68px 737.624px 838.856px " y="235.26px 235.26px 235.26px 235.26px ">edot</tspan></text>
            </g>
        </g>
    </g>
</svg>
